<svg xmlns="http://www.w3.org/2000/svg" xmlns:xlink="http://www.w3.org/1999/xlink" width="600" zoomAndPan="magnify" viewBox="0 0 450 225" height="300" preserveAspectRatio="xMidYMid meet" version="1.0"><defs><g/></defs><rect x="-45" width="540" fill="#ffffff" y="-22.5" height="270" fill-opacity="1"/><rect x="-45" width="540" fill="#ffffff" y="-22.5" height="270" fill-opacity="1"/><g fill="#000000" fill-opacity="1"><g transform="translate(47.993913, 106.324986)"><g><path d="M 22.859375 0 L 21.65625 -15.0625 L 21.5 -15.0625 L 16.296875 -0.15625 L 12.84375 -0.15625 L 7.640625 -15.0625 L 7.484375 -15.0625 L 6.28125 0 L 0.5 0 L 2.765625 -25.421875 L 8.9375 -25.421875 L 14.578125 -10.75 L 20.21875 -25.421875 L 26.375 -25.421875 L 28.65625 0 Z M 22.859375 0 "/></g></g></g><g fill="#000000" fill-opacity="1"><g transform="translate(77.138821, 106.324986)"><g><path d="M 17.84375 -7.15625 L 6.375 -7.15625 C 6.375 -6.039062 6.734375 -5.210938 7.453125 -4.671875 C 8.171875 -4.140625 8.953125 -3.875 9.796875 -3.875 C 10.679688 -3.875 11.378906 -3.992188 11.890625 -4.234375 C 12.398438 -4.472656 12.988281 -4.941406 13.65625 -5.640625 L 17.59375 -3.671875 C 15.945312 -0.910156 13.210938 0.46875 9.390625 0.46875 C 7.015625 0.46875 4.972656 -0.347656 3.265625 -1.984375 C 1.554688 -3.617188 0.703125 -5.585938 0.703125 -7.890625 C 0.703125 -10.191406 1.554688 -12.160156 3.265625 -13.796875 C 4.972656 -15.441406 7.015625 -16.265625 9.390625 -16.265625 C 11.898438 -16.265625 13.941406 -15.539062 15.515625 -14.09375 C 17.085938 -12.644531 17.875 -10.578125 17.875 -7.890625 C 17.875 -7.515625 17.863281 -7.269531 17.84375 -7.15625 Z M 6.53125 -10.171875 L 12.546875 -10.171875 C 12.421875 -10.992188 12.09375 -11.625 11.5625 -12.0625 C 11.039062 -12.5 10.367188 -12.71875 9.546875 -12.71875 C 8.648438 -12.71875 7.929688 -12.484375 7.390625 -12.015625 C 6.859375 -11.546875 6.570312 -10.929688 6.53125 -10.171875 Z M 6.53125 -10.171875 "/></g></g></g><g fill="#000000" fill-opacity="1"><g transform="translate(95.562308, 106.324986)"><g><path d="M 13.828125 -15.8125 L 20.125 -15.8125 L 7.703125 8.015625 L 1.421875 8.015625 L 6.875 -2.46875 L -0.609375 -15.8125 L 5.671875 -15.8125 L 10.078125 -7.703125 Z M 13.828125 -15.8125 "/></g></g></g><g fill="#000000" fill-opacity="1"><g transform="translate(114.201242, 106.324986)"><g><path d="M 8.71875 -16.265625 C 9.625 -16.265625 10.515625 -16.160156 11.390625 -15.953125 C 12.273438 -15.753906 12.9375 -15.550781 13.375 -15.34375 L 14.015625 -15.03125 L 12.234375 -11.46875 C 11.003906 -12.125 9.832031 -12.453125 8.71875 -12.453125 C 8.101562 -12.453125 7.664062 -12.382812 7.40625 -12.25 C 7.15625 -12.113281 7.03125 -11.863281 7.03125 -11.5 C 7.03125 -11.414062 7.039062 -11.332031 7.0625 -11.25 C 7.082031 -11.164062 7.117188 -11.085938 7.171875 -11.015625 C 7.234375 -10.941406 7.289062 -10.878906 7.34375 -10.828125 C 7.394531 -10.773438 7.484375 -10.71875 7.609375 -10.65625 C 7.734375 -10.59375 7.832031 -10.546875 7.90625 -10.515625 C 7.976562 -10.484375 8.09375 -10.4375 8.25 -10.375 C 8.414062 -10.320312 8.539062 -10.28125 8.625 -10.25 C 8.707031 -10.21875 8.847656 -10.171875 9.046875 -10.109375 C 9.242188 -10.046875 9.390625 -10.003906 9.484375 -9.984375 C 10.128906 -9.796875 10.6875 -9.585938 11.15625 -9.359375 C 11.625 -9.140625 12.117188 -8.832031 12.640625 -8.4375 C 13.171875 -8.050781 13.578125 -7.554688 13.859375 -6.953125 C 14.148438 -6.359375 14.296875 -5.6875 14.296875 -4.9375 C 14.296875 -1.332031 11.800781 0.46875 6.8125 0.46875 C 5.675781 0.46875 4.597656 0.296875 3.578125 -0.046875 C 2.566406 -0.398438 1.835938 -0.753906 1.390625 -1.109375 L 0.703125 -1.65625 L 2.921875 -5.390625 C 3.085938 -5.242188 3.300781 -5.070312 3.5625 -4.875 C 3.832031 -4.6875 4.316406 -4.421875 5.015625 -4.078125 C 5.710938 -3.742188 6.320312 -3.578125 6.84375 -3.578125 C 7.96875 -3.578125 8.53125 -3.957031 8.53125 -4.71875 C 8.53125 -5.0625 8.382812 -5.332031 8.09375 -5.53125 C 7.8125 -5.726562 7.328125 -5.945312 6.640625 -6.1875 C 5.953125 -6.4375 5.410156 -6.664062 5.015625 -6.875 C 4.035156 -7.382812 3.253906 -7.960938 2.671875 -8.609375 C 2.097656 -9.253906 1.8125 -10.113281 1.8125 -11.1875 C 1.8125 -12.789062 2.429688 -14.035156 3.671875 -14.921875 C 4.921875 -15.816406 6.601562 -16.265625 8.71875 -16.265625 Z M 8.71875 -16.265625 "/></g></g></g><g fill="#000000" fill-opacity="1"><g transform="translate(129.359056, 106.324986)"><g/></g></g><g fill="#000000" fill-opacity="1"><g transform="translate(137.769799, 106.324986)"><g><path d="M 1.84375 -25.421875 L 11.125 -25.421875 C 13.707031 -25.421875 15.800781 -24.753906 17.40625 -23.421875 C 19.007812 -22.085938 19.8125 -20.144531 19.8125 -17.59375 C 19.8125 -15.039062 19 -13.039062 17.375 -11.59375 C 15.75 -10.144531 13.664062 -9.421875 11.125 -9.421875 L 7.640625 -9.421875 L 7.640625 0 L 1.84375 0 Z M 7.640625 -14.046875 L 9.28125 -14.046875 C 10.570312 -14.046875 11.632812 -14.304688 12.46875 -14.828125 C 13.300781 -15.359375 13.71875 -16.21875 13.71875 -17.40625 C 13.71875 -18.625 13.300781 -19.492188 12.46875 -20.015625 C 11.632812 -20.535156 10.570312 -20.796875 9.28125 -20.796875 L 7.640625 -20.796875 Z M 7.640625 -14.046875 "/></g></g></g><g fill="#000000" fill-opacity="1"><g transform="translate(158.2883, 106.324986)"><g><path d="M 1.84375 0 L 1.84375 -26.5 L 7.296875 -26.5 L 7.296875 -14.140625 L 7.359375 -14.140625 C 8.773438 -15.554688 10.285156 -16.265625 11.890625 -16.265625 C 12.671875 -16.265625 13.445312 -16.160156 14.21875 -15.953125 C 14.988281 -15.753906 15.726562 -15.4375 16.4375 -15 C 17.144531 -14.570312 17.71875 -13.960938 18.15625 -13.171875 C 18.601562 -12.378906 18.828125 -11.460938 18.828125 -10.421875 L 18.828125 0 L 13.375 0 L 13.375 -8.9375 C 13.375 -9.757812 13.109375 -10.476562 12.578125 -11.09375 C 12.054688 -11.707031 11.375 -12.015625 10.53125 -12.015625 C 9.71875 -12.015625 8.972656 -11.695312 8.296875 -11.0625 C 7.628906 -10.425781 7.296875 -9.71875 7.296875 -8.9375 L 7.296875 0 Z M 1.84375 0 "/></g></g></g><g fill="#000000" fill-opacity="1"><g transform="translate(178.652762, 106.324986)"><g><path d="M 2.921875 -1.953125 C 1.441406 -3.566406 0.703125 -5.546875 0.703125 -7.890625 C 0.703125 -10.234375 1.441406 -12.210938 2.921875 -13.828125 C 4.398438 -15.453125 6.28125 -16.265625 8.5625 -16.265625 C 10.65625 -16.265625 12.382812 -15.609375 13.75 -14.296875 L 13.75 -15.8125 L 19.203125 -15.8125 L 19.203125 0 L 13.796875 0 L 13.796875 -1.78125 L 13.75 -1.78125 C 12.382812 -0.28125 10.65625 0.46875 8.5625 0.46875 C 6.28125 0.46875 4.398438 -0.335938 2.921875 -1.953125 Z M 7.5625 -10.5625 C 6.851562 -9.863281 6.5 -8.96875 6.5 -7.875 C 6.5 -6.789062 6.835938 -5.90625 7.515625 -5.21875 C 8.191406 -4.53125 9.085938 -4.1875 10.203125 -4.1875 C 11.265625 -4.1875 12.140625 -4.535156 12.828125 -5.234375 C 13.515625 -5.929688 13.859375 -6.816406 13.859375 -7.890625 C 13.859375 -8.972656 13.503906 -9.863281 12.796875 -10.5625 C 12.085938 -11.257812 11.222656 -11.609375 10.203125 -11.609375 C 9.148438 -11.609375 8.269531 -11.257812 7.5625 -10.5625 Z M 7.5625 -10.5625 "/></g></g></g><g fill="#000000" fill-opacity="1"><g transform="translate(199.695013, 106.324986)"><g><path d="M 1.84375 0 L 1.84375 -15.8125 L 7.296875 -15.8125 L 7.296875 -13.53125 L 7.359375 -13.53125 C 7.398438 -13.613281 7.46875 -13.710938 7.5625 -13.828125 C 7.65625 -13.953125 7.851562 -14.164062 8.15625 -14.46875 C 8.46875 -14.78125 8.796875 -15.0625 9.140625 -15.3125 C 9.492188 -15.5625 9.945312 -15.78125 10.5 -15.96875 C 11.0625 -16.164062 11.628906 -16.265625 12.203125 -16.265625 C 12.796875 -16.265625 13.378906 -16.179688 13.953125 -16.015625 C 14.535156 -15.859375 14.957031 -15.695312 15.21875 -15.53125 L 15.65625 -15.28125 L 13.375 -10.65625 C 12.695312 -11.238281 11.75 -11.53125 10.53125 -11.53125 C 9.875 -11.53125 9.3125 -11.382812 8.84375 -11.09375 C 8.375 -10.800781 8.039062 -10.445312 7.84375 -10.03125 C 7.644531 -9.625 7.503906 -9.273438 7.421875 -8.984375 C 7.335938 -8.703125 7.296875 -8.476562 7.296875 -8.3125 L 7.296875 0 Z M 1.84375 0 "/></g></g></g><g fill="#000000" fill-opacity="1"><g transform="translate(215.037683, 106.324986)"><g><path d="M 1.84375 0 L 1.84375 -15.8125 L 7.296875 -15.8125 L 7.296875 -14.140625 L 7.359375 -14.140625 C 8.773438 -15.554688 10.285156 -16.265625 11.890625 -16.265625 C 13.046875 -16.265625 14.125 -16.03125 15.125 -15.5625 C 16.132812 -15.09375 16.894531 -14.363281 17.40625 -13.375 C 19.007812 -15.300781 20.753906 -16.265625 22.640625 -16.265625 C 24.328125 -16.265625 25.773438 -15.789062 26.984375 -14.84375 C 28.203125 -13.90625 28.8125 -12.429688 28.8125 -10.421875 L 28.8125 0 L 23.359375 0 L 23.359375 -8.9375 C 23.359375 -9.78125 23.125 -10.484375 22.65625 -11.046875 C 22.195312 -11.609375 21.503906 -11.890625 20.578125 -11.890625 C 19.773438 -11.890625 19.164062 -11.648438 18.75 -11.171875 C 18.332031 -10.691406 18.101562 -10.109375 18.0625 -9.421875 L 18.0625 0 L 12.609375 0 L 12.609375 -8.9375 C 12.609375 -9.78125 12.375 -10.484375 11.90625 -11.046875 C 11.445312 -11.609375 10.753906 -11.890625 9.828125 -11.890625 C 8.984375 -11.890625 8.347656 -11.628906 7.921875 -11.109375 C 7.503906 -10.585938 7.296875 -9.96875 7.296875 -9.25 L 7.296875 0 Z M 1.84375 0 "/></g></g></g><g fill="#000000" fill-opacity="1"><g transform="translate(245.384117, 106.324986)"><g><path d="M 2.921875 -1.953125 C 1.441406 -3.566406 0.703125 -5.546875 0.703125 -7.890625 C 0.703125 -10.234375 1.441406 -12.210938 2.921875 -13.828125 C 4.398438 -15.453125 6.28125 -16.265625 8.5625 -16.265625 C 10.65625 -16.265625 12.382812 -15.609375 13.75 -14.296875 L 13.75 -15.8125 L 19.203125 -15.8125 L 19.203125 0 L 13.796875 0 L 13.796875 -1.78125 L 13.75 -1.78125 C 12.382812 -0.28125 10.65625 0.46875 8.5625 0.46875 C 6.28125 0.46875 4.398438 -0.335938 2.921875 -1.953125 Z M 7.5625 -10.5625 C 6.851562 -9.863281 6.5 -8.96875 6.5 -7.875 C 6.5 -6.789062 6.835938 -5.90625 7.515625 -5.21875 C 8.191406 -4.53125 9.085938 -4.1875 10.203125 -4.1875 C 11.265625 -4.1875 12.140625 -4.535156 12.828125 -5.234375 C 13.515625 -5.929688 13.859375 -6.816406 13.859375 -7.890625 C 13.859375 -8.972656 13.503906 -9.863281 12.796875 -10.5625 C 12.085938 -11.257812 11.222656 -11.609375 10.203125 -11.609375 C 9.148438 -11.609375 8.269531 -11.257812 7.5625 -10.5625 Z M 7.5625 -10.5625 "/></g></g></g><g fill="#000000" fill-opacity="1"><g transform="translate(266.426367, 106.324986)"><g><path d="M 10.265625 -11.796875 C 9.234375 -11.796875 8.347656 -11.414062 7.609375 -10.65625 C 6.867188 -9.894531 6.5 -8.984375 6.5 -7.921875 C 6.5 -6.828125 6.867188 -5.898438 7.609375 -5.140625 C 8.347656 -4.378906 9.234375 -4 10.265625 -4 C 10.753906 -4 11.21875 -4.0625 11.65625 -4.1875 C 12.101562 -4.3125 12.429688 -4.4375 12.640625 -4.5625 L 12.90625 -4.75 L 14.765625 -0.953125 C 14.617188 -0.847656 14.414062 -0.71875 14.15625 -0.5625 C 13.894531 -0.414062 13.304688 -0.207031 12.390625 0.0625 C 11.484375 0.332031 10.503906 0.46875 9.453125 0.46875 C 7.140625 0.46875 5.101562 -0.347656 3.34375 -1.984375 C 1.582031 -3.617188 0.703125 -5.578125 0.703125 -7.859375 C 0.703125 -10.160156 1.582031 -12.132812 3.34375 -13.78125 C 5.101562 -15.4375 7.140625 -16.265625 9.453125 -16.265625 C 10.503906 -16.265625 11.472656 -16.140625 12.359375 -15.890625 C 13.242188 -15.648438 13.867188 -15.40625 14.234375 -15.15625 L 14.765625 -14.796875 L 12.90625 -11.0625 C 12.226562 -11.550781 11.347656 -11.796875 10.265625 -11.796875 Z M 10.265625 -11.796875 "/></g></g></g><g fill="#000000" fill-opacity="1"><g transform="translate(281.553373, 106.324986)"><g><path d="M 17.84375 -7.15625 L 6.375 -7.15625 C 6.375 -6.039062 6.734375 -5.210938 7.453125 -4.671875 C 8.171875 -4.140625 8.953125 -3.875 9.796875 -3.875 C 10.679688 -3.875 11.378906 -3.992188 11.890625 -4.234375 C 12.398438 -4.472656 12.988281 -4.941406 13.65625 -5.640625 L 17.59375 -3.671875 C 15.945312 -0.910156 13.210938 0.46875 9.390625 0.46875 C 7.015625 0.46875 4.972656 -0.347656 3.265625 -1.984375 C 1.554688 -3.617188 0.703125 -5.585938 0.703125 -7.890625 C 0.703125 -10.191406 1.554688 -12.160156 3.265625 -13.796875 C 4.972656 -15.441406 7.015625 -16.265625 9.390625 -16.265625 C 11.898438 -16.265625 13.941406 -15.539062 15.515625 -14.09375 C 17.085938 -12.644531 17.875 -10.578125 17.875 -7.890625 C 17.875 -7.515625 17.863281 -7.269531 17.84375 -7.15625 Z M 6.53125 -10.171875 L 12.546875 -10.171875 C 12.421875 -10.992188 12.09375 -11.625 11.5625 -12.0625 C 11.039062 -12.5 10.367188 -12.71875 9.546875 -12.71875 C 8.648438 -12.71875 7.929688 -12.484375 7.390625 -12.015625 C 6.859375 -11.546875 6.570312 -10.929688 6.53125 -10.171875 Z M 6.53125 -10.171875 "/></g></g></g><g fill="#000000" fill-opacity="1"><g transform="translate(300.130956, 106.324986)"><g><path d="M 7 -15.8125 L 7 -8.28125 C 7 -6.726562 7.234375 -5.617188 7.703125 -4.953125 C 8.171875 -4.296875 8.96875 -3.96875 10.09375 -3.96875 C 11.226562 -3.96875 12.03125 -4.296875 12.5 -4.953125 C 12.976562 -5.617188 13.21875 -6.726562 13.21875 -8.28125 L 13.21875 -15.8125 L 18.671875 -15.8125 L 18.671875 -6.96875 C 18.671875 -4.332031 17.988281 -2.429688 16.625 -1.265625 C 15.257812 -0.109375 13.085938 0.46875 10.109375 0.46875 C 7.128906 0.46875 4.957031 -0.109375 3.59375 -1.265625 C 2.226562 -2.429688 1.546875 -4.332031 1.546875 -6.96875 L 1.546875 -15.8125 Z M 7 -15.8125 "/></g></g></g><g fill="#000000" fill-opacity="1"><g transform="translate(320.187275, 106.324986)"><g><path d="M 2.765625 -15.8125 L 2.765625 -21.6875 L 8.234375 -21.6875 L 8.234375 -15.8125 L 11.5625 -15.8125 L 11.5625 -11.640625 L 8.234375 -11.640625 L 8.234375 -6.625 C 8.234375 -5.164062 8.640625 -4.4375 9.453125 -4.4375 C 9.660156 -4.4375 9.878906 -4.476562 10.109375 -4.5625 C 10.335938 -4.644531 10.507812 -4.726562 10.625 -4.8125 L 10.8125 -4.9375 L 12.171875 -0.53125 C 11.003906 0.132812 9.671875 0.46875 8.171875 0.46875 C 7.140625 0.46875 6.253906 0.289062 5.515625 -0.0625 C 4.773438 -0.425781 4.210938 -0.910156 3.828125 -1.515625 C 3.453125 -2.128906 3.179688 -2.769531 3.015625 -3.4375 C 2.847656 -4.101562 2.765625 -4.816406 2.765625 -5.578125 L 2.765625 -11.640625 L 0.5 -11.640625 L 0.5 -15.8125 Z M 2.765625 -15.8125 "/></g></g></g><g fill="#000000" fill-opacity="1"><g transform="translate(332.35667, 106.324986)"><g><path d="M 2.375 -24.609375 C 3.007812 -25.253906 3.769531 -25.578125 4.65625 -25.578125 C 5.539062 -25.578125 6.300781 -25.253906 6.9375 -24.609375 C 7.570312 -23.972656 7.890625 -23.210938 7.890625 -22.328125 C 7.890625 -21.453125 7.570312 -20.695312 6.9375 -20.0625 C 6.300781 -19.425781 5.539062 -19.109375 4.65625 -19.109375 C 3.769531 -19.109375 3.007812 -19.425781 2.375 -20.0625 C 1.738281 -20.695312 1.421875 -21.453125 1.421875 -22.328125 C 1.421875 -23.210938 1.738281 -23.972656 2.375 -24.609375 Z M 1.84375 -15.8125 L 1.84375 0 L 7.296875 0 L 7.296875 -15.8125 Z M 1.84375 -15.8125 "/></g></g></g><g fill="#000000" fill-opacity="1"><g transform="translate(341.660853, 106.324986)"><g><path d="M 10.265625 -11.796875 C 9.234375 -11.796875 8.347656 -11.414062 7.609375 -10.65625 C 6.867188 -9.894531 6.5 -8.984375 6.5 -7.921875 C 6.5 -6.828125 6.867188 -5.898438 7.609375 -5.140625 C 8.347656 -4.378906 9.234375 -4 10.265625 -4 C 10.753906 -4 11.21875 -4.0625 11.65625 -4.1875 C 12.101562 -4.3125 12.429688 -4.4375 12.640625 -4.5625 L 12.90625 -4.75 L 14.765625 -0.953125 C 14.617188 -0.847656 14.414062 -0.71875 14.15625 -0.5625 C 13.894531 -0.414062 13.304688 -0.207031 12.390625 0.0625 C 11.484375 0.332031 10.503906 0.46875 9.453125 0.46875 C 7.140625 0.46875 5.101562 -0.347656 3.34375 -1.984375 C 1.582031 -3.617188 0.703125 -5.578125 0.703125 -7.859375 C 0.703125 -10.160156 1.582031 -12.132812 3.34375 -13.78125 C 5.101562 -15.4375 7.140625 -16.265625 9.453125 -16.265625 C 10.503906 -16.265625 11.472656 -16.140625 12.359375 -15.890625 C 13.242188 -15.648438 13.867188 -15.40625 14.234375 -15.15625 L 14.765625 -14.796875 L 12.90625 -11.0625 C 12.226562 -11.550781 11.347656 -11.796875 10.265625 -11.796875 Z M 10.265625 -11.796875 "/></g></g></g><g fill="#000000" fill-opacity="1"><g transform="translate(356.633776, 106.324986)"><g><path d="M 2.921875 -1.953125 C 1.441406 -3.566406 0.703125 -5.546875 0.703125 -7.890625 C 0.703125 -10.234375 1.441406 -12.210938 2.921875 -13.828125 C 4.398438 -15.453125 6.28125 -16.265625 8.5625 -16.265625 C 10.65625 -16.265625 12.382812 -15.609375 13.75 -14.296875 L 13.75 -15.8125 L 19.203125 -15.8125 L 19.203125 0 L 13.796875 0 L 13.796875 -1.78125 L 13.75 -1.78125 C 12.382812 -0.28125 10.65625 0.46875 8.5625 0.46875 C 6.28125 0.46875 4.398438 -0.335938 2.921875 -1.953125 Z M 7.5625 -10.5625 C 6.851562 -9.863281 6.5 -8.96875 6.5 -7.875 C 6.5 -6.789062 6.835938 -5.90625 7.515625 -5.21875 C 8.191406 -4.53125 9.085938 -4.1875 10.203125 -4.1875 C 11.265625 -4.1875 12.140625 -4.535156 12.828125 -5.234375 C 13.515625 -5.929688 13.859375 -6.816406 13.859375 -7.890625 C 13.859375 -8.972656 13.503906 -9.863281 12.796875 -10.5625 C 12.085938 -11.257812 11.222656 -11.609375 10.203125 -11.609375 C 9.148438 -11.609375 8.269531 -11.257812 7.5625 -10.5625 Z M 7.5625 -10.5625 "/></g></g></g><g fill="#000000" fill-opacity="1"><g transform="translate(377.676027, 106.324986)"><g><path d="M 1.84375 0 L 1.84375 -26.5 L 7.296875 -26.5 L 7.296875 0 Z M 1.84375 0 "/></g></g></g><g fill="#000000" fill-opacity="1"><g transform="translate(386.826173, 106.324986)"><g><path d="M 8.71875 -16.265625 C 9.625 -16.265625 10.515625 -16.160156 11.390625 -15.953125 C 12.273438 -15.753906 12.9375 -15.550781 13.375 -15.34375 L 14.015625 -15.03125 L 12.234375 -11.46875 C 11.003906 -12.125 9.832031 -12.453125 8.71875 -12.453125 C 8.101562 -12.453125 7.664062 -12.382812 7.40625 -12.25 C 7.15625 -12.113281 7.03125 -11.863281 7.03125 -11.5 C 7.03125 -11.414062 7.039062 -11.332031 7.0625 -11.25 C 7.082031 -11.164062 7.117188 -11.085938 7.171875 -11.015625 C 7.234375 -10.941406 7.289062 -10.878906 7.34375 -10.828125 C 7.394531 -10.773438 7.484375 -10.71875 7.609375 -10.65625 C 7.734375 -10.59375 7.832031 -10.546875 7.90625 -10.515625 C 7.976562 -10.484375 8.09375 -10.4375 8.25 -10.375 C 8.414062 -10.320312 8.539062 -10.28125 8.625 -10.25 C 8.707031 -10.21875 8.847656 -10.171875 9.046875 -10.109375 C 9.242188 -10.046875 9.390625 -10.003906 9.484375 -9.984375 C 10.128906 -9.796875 10.6875 -9.585938 11.15625 -9.359375 C 11.625 -9.140625 12.117188 -8.832031 12.640625 -8.4375 C 13.171875 -8.050781 13.578125 -7.554688 13.859375 -6.953125 C 14.148438 -6.359375 14.296875 -5.6875 14.296875 -4.9375 C 14.296875 -1.332031 11.800781 0.46875 6.8125 0.46875 C 5.675781 0.46875 4.597656 0.296875 3.578125 -0.046875 C 2.566406 -0.398438 1.835938 -0.753906 1.390625 -1.109375 L 0.703125 -1.65625 L 2.921875 -5.390625 C 3.085938 -5.242188 3.300781 -5.070312 3.5625 -4.875 C 3.832031 -4.6875 4.316406 -4.421875 5.015625 -4.078125 C 5.710938 -3.742188 6.320312 -3.578125 6.84375 -3.578125 C 7.96875 -3.578125 8.53125 -3.957031 8.53125 -4.71875 C 8.53125 -5.0625 8.382812 -5.332031 8.09375 -5.53125 C 7.8125 -5.726562 7.328125 -5.945312 6.640625 -6.1875 C 5.953125 -6.4375 5.410156 -6.664062 5.015625 -6.875 C 4.035156 -7.382812 3.253906 -7.960938 2.671875 -8.609375 C 2.097656 -9.253906 1.8125 -10.113281 1.8125 -11.1875 C 1.8125 -12.789062 2.429688 -14.035156 3.671875 -14.921875 C 4.921875 -15.816406 6.601562 -16.265625 8.71875 -16.265625 Z M 8.71875 -16.265625 "/></g></g></g><g fill="#000000" fill-opacity="1"><g transform="translate(165.591564, 137.824984)"><g><path d="M 6.828125 4.1875 L 4.5625 5.15625 C 4.46875 5.03125 4.335938 4.863281 4.171875 4.65625 C 4.015625 4.445312 3.738281 3.976562 3.34375 3.25 C 2.945312 2.519531 2.597656 1.753906 2.296875 0.953125 C 1.992188 0.160156 1.71875 -0.851562 1.46875 -2.09375 C 1.21875 -3.34375 1.09375 -4.609375 1.09375 -5.890625 C 1.09375 -7.203125 1.21875 -8.492188 1.46875 -9.765625 C 1.726562 -11.035156 2.039062 -12.101562 2.40625 -12.96875 C 2.78125 -13.84375 3.148438 -14.625 3.515625 -15.3125 C 3.878906 -16 4.1875 -16.507812 4.4375 -16.84375 L 4.828125 -17.34375 L 7.109375 -16.359375 C 7.035156 -16.265625 6.9375 -16.128906 6.8125 -15.953125 C 6.6875 -15.773438 6.460938 -15.363281 6.140625 -14.71875 C 5.828125 -14.070312 5.539062 -13.378906 5.28125 -12.640625 C 5.03125 -11.898438 4.804688 -10.914062 4.609375 -9.6875 C 4.410156 -8.46875 4.3125 -7.203125 4.3125 -5.890625 C 4.3125 -4.628906 4.394531 -3.425781 4.5625 -2.28125 C 4.738281 -1.132812 4.953125 -0.1875 5.203125 0.5625 C 5.460938 1.3125 5.710938 1.972656 5.953125 2.546875 C 6.191406 3.117188 6.398438 3.535156 6.578125 3.796875 Z M 6.828125 4.1875 "/></g></g></g><g fill="#000000" fill-opacity="1"><g transform="translate(173.572868, 137.824984)"><g><path d="M 4.90625 -16.34375 L 4.90625 0 L 1.1875 0 L 1.1875 -16.34375 Z M 4.90625 -16.34375 "/></g></g></g><g fill="#000000" fill-opacity="1"><g transform="translate(179.672717, 137.824984)"><g><path d="M 1.1875 -16.34375 L 5.921875 -16.34375 C 8.191406 -16.34375 10.132812 -15.566406 11.75 -14.015625 C 13.363281 -12.460938 14.171875 -10.519531 14.171875 -8.1875 C 14.171875 -5.832031 13.363281 -3.878906 11.75 -2.328125 C 10.144531 -0.773438 8.203125 0 5.921875 0 L 1.1875 0 Z M 4.90625 -3.328125 L 5.484375 -3.328125 C 6.847656 -3.328125 7.960938 -3.785156 8.828125 -4.703125 C 9.691406 -5.617188 10.128906 -6.769531 10.140625 -8.15625 C 10.140625 -9.550781 9.707031 -10.707031 8.84375 -11.625 C 7.976562 -12.550781 6.859375 -13.015625 5.484375 -13.015625 L 4.90625 -13.015625 Z M 4.90625 -3.328125 "/></g></g></g><g fill="#000000" fill-opacity="1"><g transform="translate(194.288596, 137.824984)"><g><path d="M 9.484375 -16.34375 L 16.09375 0 L 12.078125 0 L 10.875 -3.265625 L 4.65625 -3.265625 L 3.453125 0 L -0.5625 0 L 6.046875 -16.34375 Z M 9.609375 -6.53125 L 7.78125 -11.296875 L 7.75 -11.296875 L 5.921875 -6.53125 Z M 9.609375 -6.53125 "/></g></g></g><g fill="#000000" fill-opacity="1"><g transform="translate(209.815493, 137.824984)"><g/></g></g><g fill="#000000" fill-opacity="1"><g transform="translate(215.222185, 137.824984)"><g><path d="M 13.75 -16.34375 L 13.75 -5.8125 C 13.75 -3.800781 13.207031 -2.28125 12.125 -1.25 C 11.039062 -0.21875 9.453125 0.296875 7.359375 0.296875 C 5.273438 0.296875 3.691406 -0.21875 2.609375 -1.25 C 1.523438 -2.28125 0.984375 -3.800781 0.984375 -5.8125 L 0.984375 -16.34375 L 4.71875 -16.34375 L 4.71875 -6.890625 C 4.71875 -5.566406 4.925781 -4.648438 5.34375 -4.140625 C 5.757812 -3.628906 6.4375 -3.375 7.375 -3.375 C 8.3125 -3.375 8.988281 -3.628906 9.40625 -4.140625 C 9.820312 -4.648438 10.03125 -5.566406 10.03125 -6.890625 L 10.03125 -16.34375 Z M 13.75 -16.34375 "/></g></g></g><g fill="#000000" fill-opacity="1"><g transform="translate(229.956899, 137.824984)"><g><path d="M 11.640625 -8.90625 C 12.597656 -7.863281 13.078125 -6.585938 13.078125 -5.078125 C 13.078125 -3.578125 12.597656 -2.304688 11.640625 -1.265625 C 10.691406 -0.222656 9.488281 0.296875 8.03125 0.296875 C 6.675781 0.296875 5.566406 -0.125 4.703125 -0.96875 L 4.703125 5.15625 L 1.1875 5.15625 L 1.1875 -10.15625 L 4.65625 -10.15625 L 4.65625 -9.015625 L 4.703125 -9.015625 C 5.566406 -9.984375 6.675781 -10.46875 8.03125 -10.46875 C 9.488281 -10.46875 10.691406 -9.945312 11.640625 -8.90625 Z M 8.65625 -3.359375 C 9.113281 -3.816406 9.34375 -4.394531 9.34375 -5.09375 C 9.34375 -5.789062 9.125 -6.359375 8.6875 -6.796875 C 8.257812 -7.242188 7.6875 -7.46875 6.96875 -7.46875 C 6.28125 -7.46875 5.710938 -7.242188 5.265625 -6.796875 C 4.828125 -6.347656 4.609375 -5.78125 4.609375 -5.09375 C 4.609375 -4.394531 4.835938 -3.816406 5.296875 -3.359375 C 5.753906 -2.910156 6.3125 -2.6875 6.96875 -2.6875 C 7.644531 -2.6875 8.207031 -2.910156 8.65625 -3.359375 Z M 8.65625 -3.359375 "/></g></g></g><g fill="#000000" fill-opacity="1"><g transform="translate(243.483517, 137.824984)"><g><path d="M 11.640625 -8.90625 C 12.597656 -7.863281 13.078125 -6.585938 13.078125 -5.078125 C 13.078125 -3.578125 12.597656 -2.304688 11.640625 -1.265625 C 10.691406 -0.222656 9.488281 0.296875 8.03125 0.296875 C 6.675781 0.296875 5.566406 -0.125 4.703125 -0.96875 L 4.703125 5.15625 L 1.1875 5.15625 L 1.1875 -10.15625 L 4.65625 -10.15625 L 4.65625 -9.015625 L 4.703125 -9.015625 C 5.566406 -9.984375 6.675781 -10.46875 8.03125 -10.46875 C 9.488281 -10.46875 10.691406 -9.945312 11.640625 -8.90625 Z M 8.65625 -3.359375 C 9.113281 -3.816406 9.34375 -4.394531 9.34375 -5.09375 C 9.34375 -5.789062 9.125 -6.359375 8.6875 -6.796875 C 8.257812 -7.242188 7.6875 -7.46875 6.96875 -7.46875 C 6.28125 -7.46875 5.710938 -7.242188 5.265625 -6.796875 C 4.828125 -6.347656 4.609375 -5.78125 4.609375 -5.09375 C 4.609375 -4.394531 4.835938 -3.816406 5.296875 -3.359375 C 5.753906 -2.910156 6.3125 -2.6875 6.96875 -2.6875 C 7.644531 -2.6875 8.207031 -2.910156 8.65625 -3.359375 Z M 8.65625 -3.359375 "/></g></g></g><g fill="#000000" fill-opacity="1"><g transform="translate(257.010136, 137.824984)"><g><path d="M 1.875 -1.25 C 0.925781 -2.289062 0.453125 -3.5625 0.453125 -5.0625 C 0.453125 -6.570312 0.925781 -7.847656 1.875 -8.890625 C 2.832031 -9.941406 4.046875 -10.46875 5.515625 -10.46875 C 6.859375 -10.46875 7.96875 -10.039062 8.84375 -9.1875 L 8.84375 -10.15625 L 12.34375 -10.15625 L 12.34375 0 L 8.875 0 L 8.875 -1.15625 L 8.84375 -1.15625 C 7.96875 -0.1875 6.859375 0.296875 5.515625 0.296875 C 4.046875 0.296875 2.832031 -0.21875 1.875 -1.25 Z M 4.859375 -6.796875 C 4.410156 -6.347656 4.1875 -5.769531 4.1875 -5.0625 C 4.1875 -4.363281 4.398438 -3.789062 4.828125 -3.34375 C 5.265625 -2.90625 5.84375 -2.6875 6.5625 -2.6875 C 7.25 -2.6875 7.8125 -2.910156 8.25 -3.359375 C 8.695312 -3.816406 8.921875 -4.390625 8.921875 -5.078125 C 8.921875 -5.773438 8.691406 -6.347656 8.234375 -6.796875 C 7.773438 -7.242188 7.21875 -7.46875 6.5625 -7.46875 C 5.882812 -7.46875 5.316406 -7.242188 4.859375 -6.796875 Z M 4.859375 -6.796875 "/></g></g></g><g fill="#000000" fill-opacity="1"><g transform="translate(270.536754, 137.824984)"><g><path d="M 1.1875 0 L 1.1875 -17.03125 L 4.703125 -17.03125 L 4.703125 0 Z M 1.1875 0 "/></g></g></g><g fill="#000000" fill-opacity="1"><g transform="translate(276.418754, 137.824984)"><g><path d="M 3.421875 5.15625 L 1.15625 4.1875 C 1.21875 4.09375 1.300781 3.953125 1.40625 3.765625 C 1.519531 3.585938 1.722656 3.1875 2.015625 2.5625 C 2.304688 1.9375 2.5625 1.265625 2.78125 0.546875 C 3.007812 -0.160156 3.210938 -1.09375 3.390625 -2.25 C 3.578125 -3.414062 3.671875 -4.628906 3.671875 -5.890625 C 3.671875 -7.203125 3.570312 -8.460938 3.375 -9.671875 C 3.1875 -10.878906 2.953125 -11.875 2.671875 -12.65625 C 2.398438 -13.4375 2.128906 -14.117188 1.859375 -14.703125 C 1.585938 -15.285156 1.351562 -15.707031 1.15625 -15.96875 L 0.875 -16.359375 L 3.15625 -17.34375 C 3.257812 -17.21875 3.390625 -17.039062 3.546875 -16.8125 C 3.710938 -16.59375 4.007812 -16.101562 4.4375 -15.34375 C 4.875 -14.582031 5.253906 -13.785156 5.578125 -12.953125 C 5.910156 -12.117188 6.210938 -11.0625 6.484375 -9.78125 C 6.753906 -8.5 6.890625 -7.203125 6.890625 -5.890625 C 6.890625 -4.609375 6.769531 -3.351562 6.53125 -2.125 C 6.300781 -0.894531 6.015625 0.132812 5.671875 0.96875 C 5.328125 1.8125 4.984375 2.5625 4.640625 3.21875 C 4.304688 3.875 4.019531 4.359375 3.78125 4.671875 Z M 3.421875 5.15625 "/></g></g></g></svg>