<svg xmlns="http://www.w3.org/2000/svg" xmlns:xlink="http://www.w3.org/1999/xlink" width="600" zoomAndPan="magnify" viewBox="0 0 450 225" height="300" preserveAspectRatio="xMidYMid meet" version="1.0"><defs><g/></defs><rect x="-45" width="540" fill="#ffffff" y="-22.5" height="270" fill-opacity="1"/><rect x="-45" width="540" fill="#ffffff" y="-22.5" height="270" fill-opacity="1"/><g fill="#000000" fill-opacity="1"><g transform="translate(41.262655, 106.324026)"><g><path d="M 24.984375 0 L 17.015625 0 L 7.640625 -10.78125 L 7.640625 0 L 1.84375 0 L 1.84375 -25.421875 L 7.640625 -25.421875 L 7.640625 -15.03125 L 16.359375 -25.421875 L 23.390625 -25.421875 L 13.15625 -13.375 Z M 24.984375 0 "/></g></g></g><g fill="#000000" fill-opacity="1"><g transform="translate(65.508999, 106.324026)"><g><path d="M 1.84375 0 L 1.84375 -15.8125 L 7.296875 -15.8125 L 7.296875 -13.53125 L 7.359375 -13.53125 C 7.398438 -13.613281 7.46875 -13.710938 7.5625 -13.828125 C 7.65625 -13.953125 7.851562 -14.164062 8.15625 -14.46875 C 8.46875 -14.78125 8.796875 -15.0625 9.140625 -15.3125 C 9.492188 -15.5625 9.945312 -15.78125 10.5 -15.96875 C 11.0625 -16.164062 11.628906 -16.265625 12.203125 -16.265625 C 12.796875 -16.265625 13.378906 -16.179688 13.953125 -16.015625 C 14.535156 -15.859375 14.957031 -15.695312 15.21875 -15.53125 L 15.65625 -15.28125 L 13.375 -10.65625 C 12.695312 -11.238281 11.75 -11.53125 10.53125 -11.53125 C 9.875 -11.53125 9.3125 -11.382812 8.84375 -11.09375 C 8.375 -10.800781 8.039062 -10.445312 7.84375 -10.03125 C 7.644531 -9.625 7.503906 -9.273438 7.421875 -8.984375 C 7.335938 -8.703125 7.296875 -8.476562 7.296875 -8.3125 L 7.296875 0 Z M 1.84375 0 "/></g></g></g><g fill="#000000" fill-opacity="1"><g transform="translate(80.851669, 106.324026)"><g><path d="M 2.375 -24.609375 C 3.007812 -25.253906 3.769531 -25.578125 4.65625 -25.578125 C 5.539062 -25.578125 6.300781 -25.253906 6.9375 -24.609375 C 7.570312 -23.972656 7.890625 -23.210938 7.890625 -22.328125 C 7.890625 -21.453125 7.570312 -20.695312 6.9375 -20.0625 C 6.300781 -19.425781 5.539062 -19.109375 4.65625 -19.109375 C 3.769531 -19.109375 3.007812 -19.425781 2.375 -20.0625 C 1.738281 -20.695312 1.421875 -21.453125 1.421875 -22.328125 C 1.421875 -23.210938 1.738281 -23.972656 2.375 -24.609375 Z M 1.84375 -15.8125 L 1.84375 0 L 7.296875 0 L 7.296875 -15.8125 Z M 1.84375 -15.8125 "/></g></g></g><g fill="#000000" fill-opacity="1"><g transform="translate(90.155853, 106.324026)"><g><path d="M 8.71875 -16.265625 C 9.625 -16.265625 10.515625 -16.160156 11.390625 -15.953125 C 12.273438 -15.753906 12.9375 -15.550781 13.375 -15.34375 L 14.015625 -15.03125 L 12.234375 -11.46875 C 11.003906 -12.125 9.832031 -12.453125 8.71875 -12.453125 C 8.101562 -12.453125 7.664062 -12.382812 7.40625 -12.25 C 7.15625 -12.113281 7.03125 -11.863281 7.03125 -11.5 C 7.03125 -11.414062 7.039062 -11.332031 7.0625 -11.25 C 7.082031 -11.164062 7.117188 -11.085938 7.171875 -11.015625 C 7.234375 -10.941406 7.289062 -10.878906 7.34375 -10.828125 C 7.394531 -10.773438 7.484375 -10.71875 7.609375 -10.65625 C 7.734375 -10.59375 7.832031 -10.546875 7.90625 -10.515625 C 7.976562 -10.484375 8.09375 -10.4375 8.25 -10.375 C 8.414062 -10.320312 8.539062 -10.28125 8.625 -10.25 C 8.707031 -10.21875 8.847656 -10.171875 9.046875 -10.109375 C 9.242188 -10.046875 9.390625 -10.003906 9.484375 -9.984375 C 10.128906 -9.796875 10.6875 -9.585938 11.15625 -9.359375 C 11.625 -9.140625 12.117188 -8.832031 12.640625 -8.4375 C 13.171875 -8.050781 13.578125 -7.554688 13.859375 -6.953125 C 14.148438 -6.359375 14.296875 -5.6875 14.296875 -4.9375 C 14.296875 -1.332031 11.800781 0.46875 6.8125 0.46875 C 5.675781 0.46875 4.597656 0.296875 3.578125 -0.046875 C 2.566406 -0.398438 1.835938 -0.753906 1.390625 -1.109375 L 0.703125 -1.65625 L 2.921875 -5.390625 C 3.085938 -5.242188 3.300781 -5.070312 3.5625 -4.875 C 3.832031 -4.6875 4.316406 -4.421875 5.015625 -4.078125 C 5.710938 -3.742188 6.320312 -3.578125 6.84375 -3.578125 C 7.96875 -3.578125 8.53125 -3.957031 8.53125 -4.71875 C 8.53125 -5.0625 8.382812 -5.332031 8.09375 -5.53125 C 7.8125 -5.726562 7.328125 -5.945312 6.640625 -6.1875 C 5.953125 -6.4375 5.410156 -6.664062 5.015625 -6.875 C 4.035156 -7.382812 3.253906 -7.960938 2.671875 -8.609375 C 2.097656 -9.253906 1.8125 -10.113281 1.8125 -11.1875 C 1.8125 -12.789062 2.429688 -14.035156 3.671875 -14.921875 C 4.921875 -15.816406 6.601562 -16.265625 8.71875 -16.265625 Z M 8.71875 -16.265625 "/></g></g></g><g fill="#000000" fill-opacity="1"><g transform="translate(105.313666, 106.324026)"><g><path d="M 1.84375 0 L 1.84375 -26.5 L 7.296875 -26.5 L 7.296875 -14.140625 L 7.359375 -14.140625 C 8.773438 -15.554688 10.285156 -16.265625 11.890625 -16.265625 C 12.671875 -16.265625 13.445312 -16.160156 14.21875 -15.953125 C 14.988281 -15.753906 15.726562 -15.4375 16.4375 -15 C 17.144531 -14.570312 17.71875 -13.960938 18.15625 -13.171875 C 18.601562 -12.378906 18.828125 -11.460938 18.828125 -10.421875 L 18.828125 0 L 13.375 0 L 13.375 -8.9375 C 13.375 -9.757812 13.109375 -10.476562 12.578125 -11.09375 C 12.054688 -11.707031 11.375 -12.015625 10.53125 -12.015625 C 9.71875 -12.015625 8.972656 -11.695312 8.296875 -11.0625 C 7.628906 -10.425781 7.296875 -9.71875 7.296875 -8.9375 L 7.296875 0 Z M 1.84375 0 "/></g></g></g><g fill="#000000" fill-opacity="1"><g transform="translate(125.678129, 106.324026)"><g><path d="M 10.265625 -11.796875 C 9.234375 -11.796875 8.347656 -11.414062 7.609375 -10.65625 C 6.867188 -9.894531 6.5 -8.984375 6.5 -7.921875 C 6.5 -6.828125 6.867188 -5.898438 7.609375 -5.140625 C 8.347656 -4.378906 9.234375 -4 10.265625 -4 C 10.753906 -4 11.21875 -4.0625 11.65625 -4.1875 C 12.101562 -4.3125 12.429688 -4.4375 12.640625 -4.5625 L 12.90625 -4.75 L 14.765625 -0.953125 C 14.617188 -0.847656 14.414062 -0.71875 14.15625 -0.5625 C 13.894531 -0.414062 13.304688 -0.207031 12.390625 0.0625 C 11.484375 0.332031 10.503906 0.46875 9.453125 0.46875 C 7.140625 0.46875 5.101562 -0.347656 3.34375 -1.984375 C 1.582031 -3.617188 0.703125 -5.578125 0.703125 -7.859375 C 0.703125 -10.160156 1.582031 -12.132812 3.34375 -13.78125 C 5.101562 -15.4375 7.140625 -16.265625 9.453125 -16.265625 C 10.503906 -16.265625 11.472656 -16.140625 12.359375 -15.890625 C 13.242188 -15.648438 13.867188 -15.40625 14.234375 -15.15625 L 14.765625 -14.796875 L 12.90625 -11.0625 C 12.226562 -11.550781 11.347656 -11.796875 10.265625 -11.796875 Z M 10.265625 -11.796875 "/></g></g></g><g fill="#000000" fill-opacity="1"><g transform="translate(140.651052, 106.324026)"><g><path d="M 2.921875 -1.953125 C 1.441406 -3.566406 0.703125 -5.546875 0.703125 -7.890625 C 0.703125 -10.234375 1.441406 -12.210938 2.921875 -13.828125 C 4.398438 -15.453125 6.28125 -16.265625 8.5625 -16.265625 C 10.65625 -16.265625 12.382812 -15.609375 13.75 -14.296875 L 13.75 -15.8125 L 19.203125 -15.8125 L 19.203125 0 L 13.796875 0 L 13.796875 -1.78125 L 13.75 -1.78125 C 12.382812 -0.28125 10.65625 0.46875 8.5625 0.46875 C 6.28125 0.46875 4.398438 -0.335938 2.921875 -1.953125 Z M 7.5625 -10.5625 C 6.851562 -9.863281 6.5 -8.96875 6.5 -7.875 C 6.5 -6.789062 6.835938 -5.90625 7.515625 -5.21875 C 8.191406 -4.53125 9.085938 -4.1875 10.203125 -4.1875 C 11.265625 -4.1875 12.140625 -4.535156 12.828125 -5.234375 C 13.515625 -5.929688 13.859375 -6.816406 13.859375 -7.890625 C 13.859375 -8.972656 13.503906 -9.863281 12.796875 -10.5625 C 12.085938 -11.257812 11.222656 -11.609375 10.203125 -11.609375 C 9.148438 -11.609375 8.269531 -11.257812 7.5625 -10.5625 Z M 7.5625 -10.5625 "/></g></g></g><g fill="#000000" fill-opacity="1"><g transform="translate(161.693302, 106.324026)"><g><path d="M 1.84375 0 L 1.84375 -15.8125 L 7.296875 -15.8125 L 7.296875 -13.53125 L 7.359375 -13.53125 C 7.398438 -13.613281 7.46875 -13.710938 7.5625 -13.828125 C 7.65625 -13.953125 7.851562 -14.164062 8.15625 -14.46875 C 8.46875 -14.78125 8.796875 -15.0625 9.140625 -15.3125 C 9.492188 -15.5625 9.945312 -15.78125 10.5 -15.96875 C 11.0625 -16.164062 11.628906 -16.265625 12.203125 -16.265625 C 12.796875 -16.265625 13.378906 -16.179688 13.953125 -16.015625 C 14.535156 -15.859375 14.957031 -15.695312 15.21875 -15.53125 L 15.65625 -15.28125 L 13.375 -10.65625 C 12.695312 -11.238281 11.75 -11.53125 10.53125 -11.53125 C 9.875 -11.53125 9.3125 -11.382812 8.84375 -11.09375 C 8.375 -10.800781 8.039062 -10.445312 7.84375 -10.03125 C 7.644531 -9.625 7.503906 -9.273438 7.421875 -8.984375 C 7.335938 -8.703125 7.296875 -8.476562 7.296875 -8.3125 L 7.296875 0 Z M 1.84375 0 "/></g></g></g><g fill="#000000" fill-opacity="1"><g transform="translate(176.85107, 106.324026)"><g><path d="M 17.84375 -7.15625 L 6.375 -7.15625 C 6.375 -6.039062 6.734375 -5.210938 7.453125 -4.671875 C 8.171875 -4.140625 8.953125 -3.875 9.796875 -3.875 C 10.679688 -3.875 11.378906 -3.992188 11.890625 -4.234375 C 12.398438 -4.472656 12.988281 -4.941406 13.65625 -5.640625 L 17.59375 -3.671875 C 15.945312 -0.910156 13.210938 0.46875 9.390625 0.46875 C 7.015625 0.46875 4.972656 -0.347656 3.265625 -1.984375 C 1.554688 -3.617188 0.703125 -5.585938 0.703125 -7.890625 C 0.703125 -10.191406 1.554688 -12.160156 3.265625 -13.796875 C 4.972656 -15.441406 7.015625 -16.265625 9.390625 -16.265625 C 11.898438 -16.265625 13.941406 -15.539062 15.515625 -14.09375 C 17.085938 -12.644531 17.875 -10.578125 17.875 -7.890625 C 17.875 -7.515625 17.863281 -7.269531 17.84375 -7.15625 Z M 6.53125 -10.171875 L 12.546875 -10.171875 C 12.421875 -10.992188 12.09375 -11.625 11.5625 -12.0625 C 11.039062 -12.5 10.367188 -12.71875 9.546875 -12.71875 C 8.648438 -12.71875 7.929688 -12.484375 7.390625 -12.015625 C 6.859375 -11.546875 6.570312 -10.929688 6.53125 -10.171875 Z M 6.53125 -10.171875 "/></g></g></g><g fill="#000000" fill-opacity="1"><g transform="translate(195.428641, 106.324026)"><g/></g></g><g fill="#000000" fill-opacity="1"><g transform="translate(203.839385, 106.324026)"><g><path d="M 2.765625 -15.8125 L 2.765625 -19.171875 C 2.785156 -21.523438 3.335938 -23.410156 4.421875 -24.828125 C 5.515625 -26.253906 7.03125 -26.96875 8.96875 -26.96875 C 9.789062 -26.96875 10.578125 -26.847656 11.328125 -26.609375 C 12.078125 -26.367188 12.613281 -26.125 12.9375 -25.875 L 13.46875 -25.546875 L 11.5625 -21.6875 C 11.0625 -21.976562 10.515625 -22.125 9.921875 -22.125 C 9.242188 -22.125 8.789062 -21.890625 8.5625 -21.421875 C 8.34375 -20.960938 8.234375 -20.160156 8.234375 -19.015625 L 8.234375 -15.8125 L 11.859375 -15.8125 L 11.859375 -11.640625 L 8.234375 -11.640625 L 8.234375 0 L 2.765625 0 L 2.765625 -11.640625 L 0.5 -11.640625 L 0.5 -15.8125 Z M 2.765625 -15.8125 "/></g></g></g><g fill="#000000" fill-opacity="1"><g transform="translate(215.392595, 106.324026)"><g><path d="M 3.34375 -1.875 C 1.582031 -3.4375 0.703125 -5.441406 0.703125 -7.890625 C 0.703125 -10.335938 1.613281 -12.34375 3.4375 -13.90625 C 5.269531 -15.476562 7.535156 -16.265625 10.234375 -16.265625 C 12.878906 -16.265625 15.109375 -15.472656 16.921875 -13.890625 C 18.742188 -12.316406 19.65625 -10.316406 19.65625 -7.890625 C 19.65625 -5.460938 18.765625 -3.460938 16.984375 -1.890625 C 15.210938 -0.316406 12.960938 0.46875 10.234375 0.46875 C 7.398438 0.46875 5.101562 -0.3125 3.34375 -1.875 Z M 7.5625 -10.5625 C 6.851562 -9.863281 6.5 -8.96875 6.5 -7.875 C 6.5 -6.789062 6.835938 -5.90625 7.515625 -5.21875 C 8.191406 -4.53125 9.085938 -4.1875 10.203125 -4.1875 C 11.265625 -4.1875 12.140625 -4.535156 12.828125 -5.234375 C 13.515625 -5.929688 13.859375 -6.816406 13.859375 -7.890625 C 13.859375 -8.972656 13.503906 -9.863281 12.796875 -10.5625 C 12.085938 -11.257812 11.222656 -11.609375 10.203125 -11.609375 C 9.148438 -11.609375 8.269531 -11.257812 7.5625 -10.5625 Z M 7.5625 -10.5625 "/></g></g></g><g fill="#000000" fill-opacity="1"><g transform="translate(235.695432, 106.324026)"><g><path d="M 1.84375 0 L 1.84375 -15.8125 L 7.296875 -15.8125 L 7.296875 -13.53125 L 7.359375 -13.53125 C 7.398438 -13.613281 7.46875 -13.710938 7.5625 -13.828125 C 7.65625 -13.953125 7.851562 -14.164062 8.15625 -14.46875 C 8.46875 -14.78125 8.796875 -15.0625 9.140625 -15.3125 C 9.492188 -15.5625 9.945312 -15.78125 10.5 -15.96875 C 11.0625 -16.164062 11.628906 -16.265625 12.203125 -16.265625 C 12.796875 -16.265625 13.378906 -16.179688 13.953125 -16.015625 C 14.535156 -15.859375 14.957031 -15.695312 15.21875 -15.53125 L 15.65625 -15.28125 L 13.375 -10.65625 C 12.695312 -11.238281 11.75 -11.53125 10.53125 -11.53125 C 9.875 -11.53125 9.3125 -11.382812 8.84375 -11.09375 C 8.375 -10.800781 8.039062 -10.445312 7.84375 -10.03125 C 7.644531 -9.625 7.503906 -9.273438 7.421875 -8.984375 C 7.335938 -8.703125 7.296875 -8.476562 7.296875 -8.3125 L 7.296875 0 Z M 1.84375 0 "/></g></g></g><g fill="#000000" fill-opacity="1"><g transform="translate(251.038091, 106.324026)"><g><path d="M 1.84375 0 L 1.84375 -15.8125 L 7.296875 -15.8125 L 7.296875 -14.140625 L 7.359375 -14.140625 C 8.773438 -15.554688 10.285156 -16.265625 11.890625 -16.265625 C 13.046875 -16.265625 14.125 -16.03125 15.125 -15.5625 C 16.132812 -15.09375 16.894531 -14.363281 17.40625 -13.375 C 19.007812 -15.300781 20.753906 -16.265625 22.640625 -16.265625 C 24.328125 -16.265625 25.773438 -15.789062 26.984375 -14.84375 C 28.203125 -13.90625 28.8125 -12.429688 28.8125 -10.421875 L 28.8125 0 L 23.359375 0 L 23.359375 -8.9375 C 23.359375 -9.78125 23.125 -10.484375 22.65625 -11.046875 C 22.195312 -11.609375 21.503906 -11.890625 20.578125 -11.890625 C 19.773438 -11.890625 19.164062 -11.648438 18.75 -11.171875 C 18.332031 -10.691406 18.101562 -10.109375 18.0625 -9.421875 L 18.0625 0 L 12.609375 0 L 12.609375 -8.9375 C 12.609375 -9.78125 12.375 -10.484375 11.90625 -11.046875 C 11.445312 -11.609375 10.753906 -11.890625 9.828125 -11.890625 C 8.984375 -11.890625 8.347656 -11.628906 7.921875 -11.109375 C 7.503906 -10.585938 7.296875 -9.96875 7.296875 -9.25 L 7.296875 0 Z M 1.84375 0 "/></g></g></g><g fill="#000000" fill-opacity="1"><g transform="translate(281.384525, 106.324026)"><g><path d="M 7 -15.8125 L 7 -8.28125 C 7 -6.726562 7.234375 -5.617188 7.703125 -4.953125 C 8.171875 -4.296875 8.96875 -3.96875 10.09375 -3.96875 C 11.226562 -3.96875 12.03125 -4.296875 12.5 -4.953125 C 12.976562 -5.617188 13.21875 -6.726562 13.21875 -8.28125 L 13.21875 -15.8125 L 18.671875 -15.8125 L 18.671875 -6.96875 C 18.671875 -4.332031 17.988281 -2.429688 16.625 -1.265625 C 15.257812 -0.109375 13.085938 0.46875 10.109375 0.46875 C 7.128906 0.46875 4.957031 -0.109375 3.59375 -1.265625 C 2.226562 -2.429688 1.546875 -4.332031 1.546875 -6.96875 L 1.546875 -15.8125 Z M 7 -15.8125 "/></g></g></g><g fill="#000000" fill-opacity="1"><g transform="translate(301.59495, 106.324026)"><g><path d="M 1.84375 0 L 1.84375 -26.5 L 7.296875 -26.5 L 7.296875 0 Z M 1.84375 0 "/></g></g></g><g fill="#000000" fill-opacity="1"><g transform="translate(310.745096, 106.324026)"><g><path d="M 2.921875 -1.953125 C 1.441406 -3.566406 0.703125 -5.546875 0.703125 -7.890625 C 0.703125 -10.234375 1.441406 -12.210938 2.921875 -13.828125 C 4.398438 -15.453125 6.28125 -16.265625 8.5625 -16.265625 C 10.65625 -16.265625 12.382812 -15.609375 13.75 -14.296875 L 13.75 -15.8125 L 19.203125 -15.8125 L 19.203125 0 L 13.796875 0 L 13.796875 -1.78125 L 13.75 -1.78125 C 12.382812 -0.28125 10.65625 0.46875 8.5625 0.46875 C 6.28125 0.46875 4.398438 -0.335938 2.921875 -1.953125 Z M 7.5625 -10.5625 C 6.851562 -9.863281 6.5 -8.96875 6.5 -7.875 C 6.5 -6.789062 6.835938 -5.90625 7.515625 -5.21875 C 8.191406 -4.53125 9.085938 -4.1875 10.203125 -4.1875 C 11.265625 -4.1875 12.140625 -4.535156 12.828125 -5.234375 C 13.515625 -5.929688 13.859375 -6.816406 13.859375 -7.890625 C 13.859375 -8.972656 13.503906 -9.863281 12.796875 -10.5625 C 12.085938 -11.257812 11.222656 -11.609375 10.203125 -11.609375 C 9.148438 -11.609375 8.269531 -11.257812 7.5625 -10.5625 Z M 7.5625 -10.5625 "/></g></g></g><g fill="#000000" fill-opacity="1"><g transform="translate(331.571626, 106.324026)"><g><path d="M 2.765625 -15.8125 L 2.765625 -21.6875 L 8.234375 -21.6875 L 8.234375 -15.8125 L 11.5625 -15.8125 L 11.5625 -11.640625 L 8.234375 -11.640625 L 8.234375 -6.625 C 8.234375 -5.164062 8.640625 -4.4375 9.453125 -4.4375 C 9.660156 -4.4375 9.878906 -4.476562 10.109375 -4.5625 C 10.335938 -4.644531 10.507812 -4.726562 10.625 -4.8125 L 10.8125 -4.9375 L 12.171875 -0.53125 C 11.003906 0.132812 9.671875 0.46875 8.171875 0.46875 C 7.140625 0.46875 6.253906 0.289062 5.515625 -0.0625 C 4.773438 -0.425781 4.210938 -0.910156 3.828125 -1.515625 C 3.453125 -2.128906 3.179688 -2.769531 3.015625 -3.4375 C 2.847656 -4.101562 2.765625 -4.816406 2.765625 -5.578125 L 2.765625 -11.640625 L 0.5 -11.640625 L 0.5 -15.8125 Z M 2.765625 -15.8125 "/></g></g></g><g fill="#000000" fill-opacity="1"><g transform="translate(343.741021, 106.324026)"><g><path d="M 2.375 -24.609375 C 3.007812 -25.253906 3.769531 -25.578125 4.65625 -25.578125 C 5.539062 -25.578125 6.300781 -25.253906 6.9375 -24.609375 C 7.570312 -23.972656 7.890625 -23.210938 7.890625 -22.328125 C 7.890625 -21.453125 7.570312 -20.695312 6.9375 -20.0625 C 6.300781 -19.425781 5.539062 -19.109375 4.65625 -19.109375 C 3.769531 -19.109375 3.007812 -19.425781 2.375 -20.0625 C 1.738281 -20.695312 1.421875 -21.453125 1.421875 -22.328125 C 1.421875 -23.210938 1.738281 -23.972656 2.375 -24.609375 Z M 1.84375 -15.8125 L 1.84375 0 L 7.296875 0 L 7.296875 -15.8125 Z M 1.84375 -15.8125 "/></g></g></g><g fill="#000000" fill-opacity="1"><g transform="translate(353.045204, 106.324026)"><g><path d="M 3.34375 -1.875 C 1.582031 -3.4375 0.703125 -5.441406 0.703125 -7.890625 C 0.703125 -10.335938 1.613281 -12.34375 3.4375 -13.90625 C 5.269531 -15.476562 7.535156 -16.265625 10.234375 -16.265625 C 12.878906 -16.265625 15.109375 -15.472656 16.921875 -13.890625 C 18.742188 -12.316406 19.65625 -10.316406 19.65625 -7.890625 C 19.65625 -5.460938 18.765625 -3.460938 16.984375 -1.890625 C 15.210938 -0.316406 12.960938 0.46875 10.234375 0.46875 C 7.398438 0.46875 5.101562 -0.3125 3.34375 -1.875 Z M 7.5625 -10.5625 C 6.851562 -9.863281 6.5 -8.96875 6.5 -7.875 C 6.5 -6.789062 6.835938 -5.90625 7.515625 -5.21875 C 8.191406 -4.53125 9.085938 -4.1875 10.203125 -4.1875 C 11.265625 -4.1875 12.140625 -4.535156 12.828125 -5.234375 C 13.515625 -5.929688 13.859375 -6.816406 13.859375 -7.890625 C 13.859375 -8.972656 13.503906 -9.863281 12.796875 -10.5625 C 12.085938 -11.257812 11.222656 -11.609375 10.203125 -11.609375 C 9.148438 -11.609375 8.269531 -11.257812 7.5625 -10.5625 Z M 7.5625 -10.5625 "/></g></g></g><g fill="#000000" fill-opacity="1"><g transform="translate(373.34803, 106.324026)"><g><path d="M 1.84375 0 L 1.84375 -15.8125 L 7.296875 -15.8125 L 7.296875 -14.140625 L 7.359375 -14.140625 C 8.773438 -15.554688 10.285156 -16.265625 11.890625 -16.265625 C 12.671875 -16.265625 13.445312 -16.160156 14.21875 -15.953125 C 14.988281 -15.753906 15.726562 -15.4375 16.4375 -15 C 17.144531 -14.570312 17.71875 -13.960938 18.15625 -13.171875 C 18.601562 -12.378906 18.828125 -11.460938 18.828125 -10.421875 L 18.828125 0 L 13.375 0 L 13.375 -8.9375 C 13.375 -9.757812 13.109375 -10.476562 12.578125 -11.09375 C 12.054688 -11.707031 11.375 -12.015625 10.53125 -12.015625 C 9.71875 -12.015625 8.972656 -11.695312 8.296875 -11.0625 C 7.628906 -10.425781 7.296875 -9.71875 7.296875 -8.9375 L 7.296875 0 Z M 1.84375 0 "/></g></g></g><g fill="#000000" fill-opacity="1"><g transform="translate(393.558387, 106.324026)"><g><path d="M 8.71875 -16.265625 C 9.625 -16.265625 10.515625 -16.160156 11.390625 -15.953125 C 12.273438 -15.753906 12.9375 -15.550781 13.375 -15.34375 L 14.015625 -15.03125 L 12.234375 -11.46875 C 11.003906 -12.125 9.832031 -12.453125 8.71875 -12.453125 C 8.101562 -12.453125 7.664062 -12.382812 7.40625 -12.25 C 7.15625 -12.113281 7.03125 -11.863281 7.03125 -11.5 C 7.03125 -11.414062 7.039062 -11.332031 7.0625 -11.25 C 7.082031 -11.164062 7.117188 -11.085938 7.171875 -11.015625 C 7.234375 -10.941406 7.289062 -10.878906 7.34375 -10.828125 C 7.394531 -10.773438 7.484375 -10.71875 7.609375 -10.65625 C 7.734375 -10.59375 7.832031 -10.546875 7.90625 -10.515625 C 7.976562 -10.484375 8.09375 -10.4375 8.25 -10.375 C 8.414062 -10.320312 8.539062 -10.28125 8.625 -10.25 C 8.707031 -10.21875 8.847656 -10.171875 9.046875 -10.109375 C 9.242188 -10.046875 9.390625 -10.003906 9.484375 -9.984375 C 10.128906 -9.796875 10.6875 -9.585938 11.15625 -9.359375 C 11.625 -9.140625 12.117188 -8.832031 12.640625 -8.4375 C 13.171875 -8.050781 13.578125 -7.554688 13.859375 -6.953125 C 14.148438 -6.359375 14.296875 -5.6875 14.296875 -4.9375 C 14.296875 -1.332031 11.800781 0.46875 6.8125 0.46875 C 5.675781 0.46875 4.597656 0.296875 3.578125 -0.046875 C 2.566406 -0.398438 1.835938 -0.753906 1.390625 -1.109375 L 0.703125 -1.65625 L 2.921875 -5.390625 C 3.085938 -5.242188 3.300781 -5.070312 3.5625 -4.875 C 3.832031 -4.6875 4.316406 -4.421875 5.015625 -4.078125 C 5.710938 -3.742188 6.320312 -3.578125 6.84375 -3.578125 C 7.96875 -3.578125 8.53125 -3.957031 8.53125 -4.71875 C 8.53125 -5.0625 8.382812 -5.332031 8.09375 -5.53125 C 7.8125 -5.726562 7.328125 -5.945312 6.640625 -6.1875 C 5.953125 -6.4375 5.410156 -6.664062 5.015625 -6.875 C 4.035156 -7.382812 3.253906 -7.960938 2.671875 -8.609375 C 2.097656 -9.253906 1.8125 -10.113281 1.8125 -11.1875 C 1.8125 -12.789062 2.429688 -14.035156 3.671875 -14.921875 C 4.921875 -15.816406 6.601562 -16.265625 8.71875 -16.265625 Z M 8.71875 -16.265625 "/></g></g></g><g fill="#000000" fill-opacity="1"><g transform="translate(165.762649, 137.824024)"><g><path d="M 6.828125 4.171875 L 4.546875 5.140625 C 4.460938 5.023438 4.335938 4.859375 4.171875 4.640625 C 4.015625 4.429688 3.738281 3.960938 3.34375 3.234375 C 2.945312 2.515625 2.597656 1.753906 2.296875 0.953125 C 1.992188 0.160156 1.71875 -0.851562 1.46875 -2.09375 C 1.21875 -3.332031 1.09375 -4.59375 1.09375 -5.875 C 1.09375 -7.195312 1.21875 -8.488281 1.46875 -9.75 C 1.726562 -11.019531 2.039062 -12.09375 2.40625 -12.96875 C 2.78125 -13.84375 3.148438 -14.617188 3.515625 -15.296875 C 3.878906 -15.984375 4.1875 -16.492188 4.4375 -16.828125 L 4.828125 -17.328125 L 7.109375 -16.359375 C 7.023438 -16.265625 6.921875 -16.125 6.796875 -15.9375 C 6.671875 -15.757812 6.445312 -15.347656 6.125 -14.703125 C 5.8125 -14.054688 5.53125 -13.363281 5.28125 -12.625 C 5.03125 -11.882812 4.804688 -10.90625 4.609375 -9.6875 C 4.410156 -8.46875 4.3125 -7.195312 4.3125 -5.875 C 4.3125 -4.625 4.394531 -3.421875 4.5625 -2.265625 C 4.738281 -1.117188 4.953125 -0.175781 5.203125 0.5625 C 5.453125 1.3125 5.695312 1.972656 5.9375 2.546875 C 6.1875 3.117188 6.398438 3.535156 6.578125 3.796875 Z M 6.828125 4.171875 "/></g></g></g><g fill="#000000" fill-opacity="1"><g transform="translate(173.343193, 137.824024)"><g><path d="M 7.203125 -16.625 C 8.085938 -16.625 8.953125 -16.492188 9.796875 -16.234375 C 10.640625 -15.984375 11.269531 -15.734375 11.6875 -15.484375 L 12.28125 -15.078125 L 10.765625 -12.109375 C 10.648438 -12.191406 10.484375 -12.296875 10.265625 -12.421875 C 10.054688 -12.546875 9.660156 -12.710938 9.078125 -12.921875 C 8.503906 -13.140625 7.96875 -13.25 7.46875 -13.25 C 6.84375 -13.25 6.359375 -13.113281 6.015625 -12.84375 C 5.679688 -12.582031 5.515625 -12.226562 5.515625 -11.78125 C 5.515625 -11.550781 5.59375 -11.34375 5.75 -11.15625 C 5.914062 -10.96875 6.1875 -10.765625 6.5625 -10.546875 C 6.945312 -10.328125 7.285156 -10.148438 7.578125 -10.015625 C 7.867188 -9.878906 8.316406 -9.679688 8.921875 -9.421875 C 9.984375 -8.972656 10.882812 -8.363281 11.625 -7.59375 C 12.375 -6.820312 12.75 -5.945312 12.75 -4.96875 C 12.75 -4.03125 12.578125 -3.210938 12.234375 -2.515625 C 11.898438 -1.816406 11.441406 -1.269531 10.859375 -0.875 C 10.273438 -0.476562 9.625 -0.1875 8.90625 0 C 8.195312 0.195312 7.425781 0.296875 6.59375 0.296875 C 5.875 0.296875 5.171875 0.222656 4.484375 0.078125 C 3.804688 -0.0664062 3.234375 -0.25 2.765625 -0.46875 C 2.304688 -0.6875 1.890625 -0.898438 1.515625 -1.109375 C 1.148438 -1.316406 0.882812 -1.492188 0.71875 -1.640625 L 0.453125 -1.859375 L 2.3125 -4.984375 C 2.46875 -4.859375 2.6875 -4.691406 2.96875 -4.484375 C 3.25 -4.273438 3.738281 -4 4.4375 -3.65625 C 5.144531 -3.3125 5.769531 -3.140625 6.3125 -3.140625 C 7.882812 -3.140625 8.671875 -3.675781 8.671875 -4.75 C 8.671875 -4.976562 8.613281 -5.1875 8.5 -5.375 C 8.382812 -5.5625 8.1875 -5.75 7.90625 -5.9375 C 7.625 -6.132812 7.375 -6.289062 7.15625 -6.40625 C 6.9375 -6.519531 6.578125 -6.691406 6.078125 -6.921875 C 5.585938 -7.148438 5.222656 -7.320312 4.984375 -7.4375 C 3.992188 -7.925781 3.226562 -8.535156 2.6875 -9.265625 C 2.144531 -10.003906 1.875 -10.796875 1.875 -11.640625 C 1.875 -13.109375 2.414062 -14.304688 3.5 -15.234375 C 4.582031 -16.160156 5.816406 -16.625 7.203125 -16.625 Z M 7.203125 -16.625 "/></g></g></g><g fill="#000000" fill-opacity="1"><g transform="translate(186.64403, 137.824024)"><g><path d="M 4.5 -10.15625 L 4.5 -5.328125 C 4.5 -4.328125 4.648438 -3.613281 4.953125 -3.1875 C 5.253906 -2.757812 5.765625 -2.546875 6.484375 -2.546875 C 7.210938 -2.546875 7.726562 -2.757812 8.03125 -3.1875 C 8.34375 -3.613281 8.5 -4.328125 8.5 -5.328125 L 8.5 -10.15625 L 12 -10.15625 L 12 -4.46875 C 12 -2.78125 11.554688 -1.5625 10.671875 -0.8125 C 9.796875 -0.0703125 8.398438 0.296875 6.484375 0.296875 C 4.578125 0.296875 3.179688 -0.0703125 2.296875 -0.8125 C 1.421875 -1.5625 0.984375 -2.78125 0.984375 -4.46875 L 0.984375 -10.15625 Z M 4.5 -10.15625 "/></g></g></g><g fill="#000000" fill-opacity="1"><g transform="translate(199.628187, 137.824024)"><g><path d="M 1.1875 0 L 1.1875 -17.03125 L 4.6875 -17.03125 L 4.6875 0 Z M 1.1875 0 "/></g></g></g><g fill="#000000" fill-opacity="1"><g transform="translate(205.506685, 137.824024)"><g><path d="M 1.78125 -10.15625 L 1.78125 -13.9375 L 5.28125 -13.9375 L 5.28125 -10.15625 L 7.421875 -10.15625 L 7.421875 -7.484375 L 5.28125 -7.484375 L 5.28125 -4.25 C 5.28125 -3.3125 5.546875 -2.84375 6.078125 -2.84375 C 6.210938 -2.84375 6.351562 -2.867188 6.5 -2.921875 C 6.644531 -2.984375 6.753906 -3.039062 6.828125 -3.09375 L 6.953125 -3.171875 L 7.8125 -0.34375 C 7.0625 0.0820312 6.207031 0.296875 5.25 0.296875 C 4.582031 0.296875 4.007812 0.179688 3.53125 -0.046875 C 3.0625 -0.273438 2.703125 -0.582031 2.453125 -0.96875 C 2.210938 -1.363281 2.039062 -1.773438 1.9375 -2.203125 C 1.832031 -2.628906 1.78125 -3.085938 1.78125 -3.578125 L 1.78125 -7.484375 L 0.3125 -7.484375 L 0.3125 -10.15625 Z M 1.78125 -10.15625 "/></g></g></g><g fill="#000000" fill-opacity="1"><g transform="translate(213.285291, 137.824024)"><g><path d="M 1.875 -1.25 C 0.925781 -2.289062 0.453125 -3.5625 0.453125 -5.0625 C 0.453125 -6.570312 0.925781 -7.847656 1.875 -8.890625 C 2.832031 -9.929688 4.039062 -10.453125 5.5 -10.453125 C 6.84375 -10.453125 7.953125 -10.03125 8.828125 -9.1875 L 8.828125 -10.15625 L 12.328125 -10.15625 L 12.328125 0 L 8.875 0 L 8.875 -1.140625 L 8.828125 -1.140625 C 7.953125 -0.179688 6.84375 0.296875 5.5 0.296875 C 4.039062 0.296875 2.832031 -0.21875 1.875 -1.25 Z M 4.859375 -6.796875 C 4.398438 -6.347656 4.171875 -5.769531 4.171875 -5.0625 C 4.171875 -4.363281 4.390625 -3.789062 4.828125 -3.34375 C 5.265625 -2.90625 5.835938 -2.6875 6.546875 -2.6875 C 7.234375 -2.6875 7.796875 -2.910156 8.234375 -3.359375 C 8.679688 -3.804688 8.90625 -4.375 8.90625 -5.0625 C 8.90625 -5.769531 8.675781 -6.347656 8.21875 -6.796875 C 7.769531 -7.242188 7.210938 -7.46875 6.546875 -7.46875 C 5.878906 -7.46875 5.316406 -7.242188 4.859375 -6.796875 Z M 4.859375 -6.796875 "/></g></g></g><g fill="#000000" fill-opacity="1"><g transform="translate(226.803853, 137.824024)"><g><path d="M 1.1875 0 L 1.1875 -10.15625 L 4.6875 -10.15625 L 4.6875 -9.09375 L 4.734375 -9.09375 C 5.640625 -10 6.609375 -10.453125 7.640625 -10.453125 C 8.140625 -10.453125 8.632812 -10.382812 9.125 -10.25 C 9.625 -10.125 10.101562 -9.921875 10.5625 -9.640625 C 11.019531 -9.359375 11.390625 -8.960938 11.671875 -8.453125 C 11.953125 -7.953125 12.09375 -7.363281 12.09375 -6.6875 L 12.09375 0 L 8.59375 0 L 8.59375 -5.734375 C 8.59375 -6.265625 8.421875 -6.726562 8.078125 -7.125 C 7.742188 -7.519531 7.304688 -7.71875 6.765625 -7.71875 C 6.242188 -7.71875 5.765625 -7.515625 5.328125 -7.109375 C 4.898438 -6.703125 4.6875 -6.242188 4.6875 -5.734375 L 4.6875 0 Z M 1.1875 0 "/></g></g></g><g fill="#000000" fill-opacity="1"><g transform="translate(239.886967, 137.824024)"><g><path d="M 11.640625 -8.890625 C 12.585938 -7.859375 13.0625 -6.585938 13.0625 -5.078125 C 13.0625 -3.578125 12.585938 -2.304688 11.640625 -1.265625 C 10.691406 -0.222656 9.484375 0.296875 8.015625 0.296875 C 6.671875 0.296875 5.5625 -0.125 4.6875 -0.96875 L 4.6875 5.140625 L 1.1875 5.140625 L 1.1875 -10.15625 L 4.65625 -10.15625 L 4.65625 -9 L 4.6875 -9 C 5.5625 -9.96875 6.671875 -10.453125 8.015625 -10.453125 C 9.484375 -10.453125 10.691406 -9.929688 11.640625 -8.890625 Z M 8.65625 -3.359375 C 9.113281 -3.804688 9.34375 -4.378906 9.34375 -5.078125 C 9.34375 -5.785156 9.125 -6.359375 8.6875 -6.796875 C 8.25 -7.242188 7.675781 -7.46875 6.96875 -7.46875 C 6.28125 -7.46875 5.710938 -7.242188 5.265625 -6.796875 C 4.828125 -6.347656 4.609375 -5.78125 4.609375 -5.09375 C 4.609375 -4.382812 4.835938 -3.804688 5.296875 -3.359375 C 5.753906 -2.910156 6.3125 -2.6875 6.96875 -2.6875 C 7.644531 -2.6875 8.207031 -2.910156 8.65625 -3.359375 Z M 8.65625 -3.359375 "/></g></g></g><g fill="#000000" fill-opacity="1"><g transform="translate(253.405529, 137.824024)"><g><path d="M 4.5 -10.15625 L 4.5 -5.328125 C 4.5 -4.328125 4.648438 -3.613281 4.953125 -3.1875 C 5.253906 -2.757812 5.765625 -2.546875 6.484375 -2.546875 C 7.210938 -2.546875 7.726562 -2.757812 8.03125 -3.1875 C 8.34375 -3.613281 8.5 -4.328125 8.5 -5.328125 L 8.5 -10.15625 L 12 -10.15625 L 12 -4.46875 C 12 -2.78125 11.554688 -1.5625 10.671875 -0.8125 C 9.796875 -0.0703125 8.398438 0.296875 6.484375 0.296875 C 4.578125 0.296875 3.179688 -0.0703125 2.296875 -0.8125 C 1.421875 -1.5625 0.984375 -2.78125 0.984375 -4.46875 L 0.984375 -10.15625 Z M 4.5 -10.15625 "/></g></g></g><g fill="#000000" fill-opacity="1"><g transform="translate(266.389686, 137.824024)"><g><path d="M 1.1875 0 L 1.1875 -10.15625 L 4.6875 -10.15625 L 4.6875 -8.6875 L 4.734375 -8.6875 C 4.753906 -8.738281 4.796875 -8.800781 4.859375 -8.875 C 4.921875 -8.957031 5.050781 -9.097656 5.25 -9.296875 C 5.445312 -9.492188 5.65625 -9.671875 5.875 -9.828125 C 6.101562 -9.992188 6.394531 -10.140625 6.75 -10.265625 C 7.101562 -10.390625 7.46875 -10.453125 7.84375 -10.453125 C 8.21875 -10.453125 8.585938 -10.398438 8.953125 -10.296875 C 9.328125 -10.191406 9.601562 -10.085938 9.78125 -9.984375 L 10.0625 -9.8125 L 8.59375 -6.84375 C 8.15625 -7.21875 7.546875 -7.40625 6.765625 -7.40625 C 6.347656 -7.40625 5.984375 -7.3125 5.671875 -7.125 C 5.367188 -6.9375 5.15625 -6.710938 5.03125 -6.453125 C 4.90625 -6.191406 4.816406 -5.96875 4.765625 -5.78125 C 4.710938 -5.59375 4.6875 -5.445312 4.6875 -5.34375 L 4.6875 0 Z M 1.1875 0 "/></g></g></g><g fill="#000000" fill-opacity="1"><g transform="translate(276.246562, 137.824024)"><g><path d="M 3.421875 5.140625 L 1.140625 4.171875 C 1.210938 4.078125 1.300781 3.941406 1.40625 3.765625 C 1.519531 3.585938 1.722656 3.1875 2.015625 2.5625 C 2.304688 1.9375 2.5625 1.265625 2.78125 0.546875 C 3.007812 -0.160156 3.210938 -1.09375 3.390625 -2.25 C 3.566406 -3.414062 3.65625 -4.625 3.65625 -5.875 C 3.65625 -7.195312 3.5625 -8.460938 3.375 -9.671875 C 3.1875 -10.878906 2.953125 -11.867188 2.671875 -12.640625 C 2.390625 -13.421875 2.113281 -14.101562 1.84375 -14.6875 C 1.570312 -15.269531 1.335938 -15.691406 1.140625 -15.953125 L 0.875 -16.359375 L 3.140625 -17.328125 C 3.253906 -17.203125 3.390625 -17.023438 3.546875 -16.796875 C 3.710938 -16.578125 4.007812 -16.085938 4.4375 -15.328125 C 4.875 -14.566406 5.253906 -13.769531 5.578125 -12.9375 C 5.910156 -12.113281 6.210938 -11.0625 6.484375 -9.78125 C 6.753906 -8.5 6.890625 -7.195312 6.890625 -5.875 C 6.890625 -4.59375 6.769531 -3.335938 6.53125 -2.109375 C 6.289062 -0.890625 6 0.132812 5.65625 0.96875 C 5.3125 1.8125 4.972656 2.5625 4.640625 3.21875 C 4.304688 3.875 4.019531 4.359375 3.78125 4.671875 Z M 3.421875 5.140625 "/></g></g></g></svg>