<svg xmlns="http://www.w3.org/2000/svg" xmlns:xlink="http://www.w3.org/1999/xlink" width="600" zoomAndPan="magnify" viewBox="0 0 450 225" height="300" preserveAspectRatio="xMidYMid meet" version="1.0"><defs><g/></defs><rect x="-45" width="540" fill="#ffffff" y="-22.5" height="270" fill-opacity="1"/><rect x="-45" width="540" fill="#ffffff" y="-22.5" height="270" fill-opacity="1"/><g fill="#000000" fill-opacity="1"><g transform="translate(43.883905, 106.325046)"><g><path d="M 14.765625 -25.421875 L 25.015625 0 L 18.796875 0 L 16.921875 -5.078125 L 7.234375 -5.078125 L 5.359375 0 L -0.859375 0 L 9.390625 -25.421875 Z M 14.9375 -10.171875 L 12.109375 -17.5625 L 12.046875 -17.5625 L 9.21875 -10.171875 Z M 14.9375 -10.171875 "/></g></g></g><g fill="#000000" fill-opacity="1"><g transform="translate(68.037827, 106.325046)"><g><path d="M 1.84375 0 L 1.84375 -15.8125 L 7.296875 -15.8125 L 7.296875 -13.53125 L 7.359375 -13.53125 C 7.398438 -13.613281 7.46875 -13.710938 7.5625 -13.828125 C 7.65625 -13.953125 7.851562 -14.164062 8.15625 -14.46875 C 8.46875 -14.78125 8.796875 -15.0625 9.140625 -15.3125 C 9.492188 -15.5625 9.945312 -15.78125 10.5 -15.96875 C 11.0625 -16.164062 11.628906 -16.265625 12.203125 -16.265625 C 12.796875 -16.265625 13.378906 -16.179688 13.953125 -16.015625 C 14.535156 -15.859375 14.957031 -15.695312 15.21875 -15.53125 L 15.65625 -15.28125 L 13.375 -10.65625 C 12.695312 -11.238281 11.75 -11.53125 10.53125 -11.53125 C 9.875 -11.53125 9.3125 -11.382812 8.84375 -11.09375 C 8.375 -10.800781 8.039062 -10.445312 7.84375 -10.03125 C 7.644531 -9.625 7.503906 -9.273438 7.421875 -8.984375 C 7.335938 -8.703125 7.296875 -8.476562 7.296875 -8.3125 L 7.296875 0 Z M 1.84375 0 "/></g></g></g><g fill="#000000" fill-opacity="1"><g transform="translate(83.195595, 106.325046)"><g><path d="M 10.265625 -11.796875 C 9.234375 -11.796875 8.347656 -11.414062 7.609375 -10.65625 C 6.867188 -9.894531 6.5 -8.984375 6.5 -7.921875 C 6.5 -6.828125 6.867188 -5.898438 7.609375 -5.140625 C 8.347656 -4.378906 9.234375 -4 10.265625 -4 C 10.753906 -4 11.21875 -4.0625 11.65625 -4.1875 C 12.101562 -4.3125 12.429688 -4.4375 12.640625 -4.5625 L 12.90625 -4.75 L 14.765625 -0.953125 C 14.617188 -0.847656 14.414062 -0.71875 14.15625 -0.5625 C 13.894531 -0.414062 13.304688 -0.207031 12.390625 0.0625 C 11.484375 0.332031 10.503906 0.46875 9.453125 0.46875 C 7.140625 0.46875 5.101562 -0.347656 3.34375 -1.984375 C 1.582031 -3.617188 0.703125 -5.578125 0.703125 -7.859375 C 0.703125 -10.160156 1.582031 -12.132812 3.34375 -13.78125 C 5.101562 -15.4375 7.140625 -16.265625 9.453125 -16.265625 C 10.503906 -16.265625 11.472656 -16.140625 12.359375 -15.890625 C 13.242188 -15.648438 13.867188 -15.40625 14.234375 -15.15625 L 14.765625 -14.796875 L 12.90625 -11.0625 C 12.226562 -11.550781 11.347656 -11.796875 10.265625 -11.796875 Z M 10.265625 -11.796875 "/></g></g></g><g fill="#000000" fill-opacity="1"><g transform="translate(98.3226, 106.325046)"><g><path d="M 1.84375 0 L 1.84375 -26.5 L 7.296875 -26.5 L 7.296875 -14.140625 L 7.359375 -14.140625 C 8.773438 -15.554688 10.285156 -16.265625 11.890625 -16.265625 C 12.671875 -16.265625 13.445312 -16.160156 14.21875 -15.953125 C 14.988281 -15.753906 15.726562 -15.4375 16.4375 -15 C 17.144531 -14.570312 17.71875 -13.960938 18.15625 -13.171875 C 18.601562 -12.378906 18.828125 -11.460938 18.828125 -10.421875 L 18.828125 0 L 13.375 0 L 13.375 -8.9375 C 13.375 -9.757812 13.109375 -10.476562 12.578125 -11.09375 C 12.054688 -11.707031 11.375 -12.015625 10.53125 -12.015625 C 9.71875 -12.015625 8.972656 -11.695312 8.296875 -11.0625 C 7.628906 -10.425781 7.296875 -9.71875 7.296875 -8.9375 L 7.296875 0 Z M 1.84375 0 "/></g></g></g><g fill="#000000" fill-opacity="1"><g transform="translate(118.687063, 106.325046)"><g><path d="M 17.84375 -7.15625 L 6.375 -7.15625 C 6.375 -6.039062 6.734375 -5.210938 7.453125 -4.671875 C 8.171875 -4.140625 8.953125 -3.875 9.796875 -3.875 C 10.679688 -3.875 11.378906 -3.992188 11.890625 -4.234375 C 12.398438 -4.472656 12.988281 -4.941406 13.65625 -5.640625 L 17.59375 -3.671875 C 15.945312 -0.910156 13.210938 0.46875 9.390625 0.46875 C 7.015625 0.46875 4.972656 -0.347656 3.265625 -1.984375 C 1.554688 -3.617188 0.703125 -5.585938 0.703125 -7.890625 C 0.703125 -10.191406 1.554688 -12.160156 3.265625 -13.796875 C 4.972656 -15.441406 7.015625 -16.265625 9.390625 -16.265625 C 11.898438 -16.265625 13.941406 -15.539062 15.515625 -14.09375 C 17.085938 -12.644531 17.875 -10.578125 17.875 -7.890625 C 17.875 -7.515625 17.863281 -7.269531 17.84375 -7.15625 Z M 6.53125 -10.171875 L 12.546875 -10.171875 C 12.421875 -10.992188 12.09375 -11.625 11.5625 -12.0625 C 11.039062 -12.5 10.367188 -12.71875 9.546875 -12.71875 C 8.648438 -12.71875 7.929688 -12.484375 7.390625 -12.015625 C 6.859375 -11.546875 6.570312 -10.929688 6.53125 -10.171875 Z M 6.53125 -10.171875 "/></g></g></g><g fill="#000000" fill-opacity="1"><g transform="translate(137.264634, 106.325046)"><g><path d="M 17.84375 -7.15625 L 6.375 -7.15625 C 6.375 -6.039062 6.734375 -5.210938 7.453125 -4.671875 C 8.171875 -4.140625 8.953125 -3.875 9.796875 -3.875 C 10.679688 -3.875 11.378906 -3.992188 11.890625 -4.234375 C 12.398438 -4.472656 12.988281 -4.941406 13.65625 -5.640625 L 17.59375 -3.671875 C 15.945312 -0.910156 13.210938 0.46875 9.390625 0.46875 C 7.015625 0.46875 4.972656 -0.347656 3.265625 -1.984375 C 1.554688 -3.617188 0.703125 -5.585938 0.703125 -7.890625 C 0.703125 -10.191406 1.554688 -12.160156 3.265625 -13.796875 C 4.972656 -15.441406 7.015625 -16.265625 9.390625 -16.265625 C 11.898438 -16.265625 13.941406 -15.539062 15.515625 -14.09375 C 17.085938 -12.644531 17.875 -10.578125 17.875 -7.890625 C 17.875 -7.515625 17.863281 -7.269531 17.84375 -7.15625 Z M 6.53125 -10.171875 L 12.546875 -10.171875 C 12.421875 -10.992188 12.09375 -11.625 11.5625 -12.0625 C 11.039062 -12.5 10.367188 -12.71875 9.546875 -12.71875 C 8.648438 -12.71875 7.929688 -12.484375 7.390625 -12.015625 C 6.859375 -11.546875 6.570312 -10.929688 6.53125 -10.171875 Z M 6.53125 -10.171875 "/></g></g></g><g fill="#000000" fill-opacity="1"><g transform="translate(155.718941, 106.325046)"><g><path d="M 8.71875 -16.265625 C 9.625 -16.265625 10.515625 -16.160156 11.390625 -15.953125 C 12.273438 -15.753906 12.9375 -15.550781 13.375 -15.34375 L 14.015625 -15.03125 L 12.234375 -11.46875 C 11.003906 -12.125 9.832031 -12.453125 8.71875 -12.453125 C 8.101562 -12.453125 7.664062 -12.382812 7.40625 -12.25 C 7.15625 -12.113281 7.03125 -11.863281 7.03125 -11.5 C 7.03125 -11.414062 7.039062 -11.332031 7.0625 -11.25 C 7.082031 -11.164062 7.117188 -11.085938 7.171875 -11.015625 C 7.234375 -10.941406 7.289062 -10.878906 7.34375 -10.828125 C 7.394531 -10.773438 7.484375 -10.71875 7.609375 -10.65625 C 7.734375 -10.59375 7.832031 -10.546875 7.90625 -10.515625 C 7.976562 -10.484375 8.09375 -10.4375 8.25 -10.375 C 8.414062 -10.320312 8.539062 -10.28125 8.625 -10.25 C 8.707031 -10.21875 8.847656 -10.171875 9.046875 -10.109375 C 9.242188 -10.046875 9.390625 -10.003906 9.484375 -9.984375 C 10.128906 -9.796875 10.6875 -9.585938 11.15625 -9.359375 C 11.625 -9.140625 12.117188 -8.832031 12.640625 -8.4375 C 13.171875 -8.050781 13.578125 -7.554688 13.859375 -6.953125 C 14.148438 -6.359375 14.296875 -5.6875 14.296875 -4.9375 C 14.296875 -1.332031 11.800781 0.46875 6.8125 0.46875 C 5.675781 0.46875 4.597656 0.296875 3.578125 -0.046875 C 2.566406 -0.398438 1.835938 -0.753906 1.390625 -1.109375 L 0.703125 -1.65625 L 2.921875 -5.390625 C 3.085938 -5.242188 3.300781 -5.070312 3.5625 -4.875 C 3.832031 -4.6875 4.316406 -4.421875 5.015625 -4.078125 C 5.710938 -3.742188 6.320312 -3.578125 6.84375 -3.578125 C 7.96875 -3.578125 8.53125 -3.957031 8.53125 -4.71875 C 8.53125 -5.0625 8.382812 -5.332031 8.09375 -5.53125 C 7.8125 -5.726562 7.328125 -5.945312 6.640625 -6.1875 C 5.953125 -6.4375 5.410156 -6.664062 5.015625 -6.875 C 4.035156 -7.382812 3.253906 -7.960938 2.671875 -8.609375 C 2.097656 -9.253906 1.8125 -10.113281 1.8125 -11.1875 C 1.8125 -12.789062 2.429688 -14.035156 3.671875 -14.921875 C 4.921875 -15.816406 6.601562 -16.265625 8.71875 -16.265625 Z M 8.71875 -16.265625 "/></g></g></g><g fill="#000000" fill-opacity="1"><g transform="translate(170.876754, 106.325046)"><g><path d="M 1.84375 0 L 1.84375 -26.5 L 7.296875 -26.5 L 7.296875 -14.140625 L 7.359375 -14.140625 C 8.773438 -15.554688 10.285156 -16.265625 11.890625 -16.265625 C 12.671875 -16.265625 13.445312 -16.160156 14.21875 -15.953125 C 14.988281 -15.753906 15.726562 -15.4375 16.4375 -15 C 17.144531 -14.570312 17.71875 -13.960938 18.15625 -13.171875 C 18.601562 -12.378906 18.828125 -11.460938 18.828125 -10.421875 L 18.828125 0 L 13.375 0 L 13.375 -8.9375 C 13.375 -9.757812 13.109375 -10.476562 12.578125 -11.09375 C 12.054688 -11.707031 11.375 -12.015625 10.53125 -12.015625 C 9.71875 -12.015625 8.972656 -11.695312 8.296875 -11.0625 C 7.628906 -10.425781 7.296875 -9.71875 7.296875 -8.9375 L 7.296875 0 Z M 1.84375 0 "/></g></g></g><g fill="#000000" fill-opacity="1"><g transform="translate(191.241217, 106.325046)"><g/></g></g><g fill="#000000" fill-opacity="1"><g transform="translate(199.651961, 106.325046)"><g><path d="M 7.640625 -25.421875 L 7.640625 -5.078125 L 16.390625 -5.078125 L 16.390625 0 L 1.84375 0 L 1.84375 -25.421875 Z M 7.640625 -25.421875 "/></g></g></g><g fill="#000000" fill-opacity="1"><g transform="translate(217.058801, 106.325046)"><g><path d="M 2.921875 -1.953125 C 1.441406 -3.566406 0.703125 -5.546875 0.703125 -7.890625 C 0.703125 -10.234375 1.441406 -12.210938 2.921875 -13.828125 C 4.398438 -15.453125 6.28125 -16.265625 8.5625 -16.265625 C 10.65625 -16.265625 12.382812 -15.609375 13.75 -14.296875 L 13.75 -15.8125 L 19.203125 -15.8125 L 19.203125 0 L 13.796875 0 L 13.796875 -1.78125 L 13.75 -1.78125 C 12.382812 -0.28125 10.65625 0.46875 8.5625 0.46875 C 6.28125 0.46875 4.398438 -0.335938 2.921875 -1.953125 Z M 7.5625 -10.5625 C 6.851562 -9.863281 6.5 -8.96875 6.5 -7.875 C 6.5 -6.789062 6.835938 -5.90625 7.515625 -5.21875 C 8.191406 -4.53125 9.085938 -4.1875 10.203125 -4.1875 C 11.265625 -4.1875 12.140625 -4.535156 12.828125 -5.234375 C 13.515625 -5.929688 13.859375 -6.816406 13.859375 -7.890625 C 13.859375 -8.972656 13.503906 -9.863281 12.796875 -10.5625 C 12.085938 -11.257812 11.222656 -11.609375 10.203125 -11.609375 C 9.148438 -11.609375 8.269531 -11.257812 7.5625 -10.5625 Z M 7.5625 -10.5625 "/></g></g></g><g fill="#000000" fill-opacity="1"><g transform="translate(238.101052, 106.325046)"><g><path d="M 18.125 -13.828125 C 19.601562 -12.210938 20.34375 -10.234375 20.34375 -7.890625 C 20.34375 -5.546875 19.601562 -3.566406 18.125 -1.953125 C 16.644531 -0.335938 14.765625 0.46875 12.484375 0.46875 C 10.390625 0.46875 8.660156 -0.28125 7.296875 -1.78125 L 7.234375 -1.78125 L 7.234375 0 L 1.84375 0 L 1.84375 -26.5 L 7.296875 -26.5 L 7.296875 -14.296875 C 8.660156 -15.609375 10.390625 -16.265625 12.484375 -16.265625 C 14.765625 -16.265625 16.644531 -15.453125 18.125 -13.828125 Z M 13.53125 -5.21875 C 14.207031 -5.90625 14.546875 -6.789062 14.546875 -7.875 C 14.546875 -8.96875 14.191406 -9.863281 13.484375 -10.5625 C 12.773438 -11.257812 11.894531 -11.609375 10.84375 -11.609375 C 9.820312 -11.609375 8.953125 -11.257812 8.234375 -10.5625 C 7.523438 -9.863281 7.171875 -8.972656 7.171875 -7.890625 C 7.171875 -6.816406 7.515625 -5.929688 8.203125 -5.234375 C 8.898438 -4.535156 9.78125 -4.1875 10.84375 -4.1875 C 11.957031 -4.1875 12.851562 -4.53125 13.53125 -5.21875 Z M 13.53125 -5.21875 "/></g></g></g><g fill="#000000" fill-opacity="1"><g transform="translate(259.143302, 106.325046)"><g><path d="M 3.34375 -1.875 C 1.582031 -3.4375 0.703125 -5.441406 0.703125 -7.890625 C 0.703125 -10.335938 1.613281 -12.34375 3.4375 -13.90625 C 5.269531 -15.476562 7.535156 -16.265625 10.234375 -16.265625 C 12.878906 -16.265625 15.109375 -15.472656 16.921875 -13.890625 C 18.742188 -12.316406 19.65625 -10.316406 19.65625 -7.890625 C 19.65625 -5.460938 18.765625 -3.460938 16.984375 -1.890625 C 15.210938 -0.316406 12.960938 0.46875 10.234375 0.46875 C 7.398438 0.46875 5.101562 -0.3125 3.34375 -1.875 Z M 7.5625 -10.5625 C 6.851562 -9.863281 6.5 -8.96875 6.5 -7.875 C 6.5 -6.789062 6.835938 -5.90625 7.515625 -5.21875 C 8.191406 -4.53125 9.085938 -4.1875 10.203125 -4.1875 C 11.265625 -4.1875 12.140625 -4.535156 12.828125 -5.234375 C 13.515625 -5.929688 13.859375 -6.816406 13.859375 -7.890625 C 13.859375 -8.972656 13.503906 -9.863281 12.796875 -10.5625 C 12.085938 -11.257812 11.222656 -11.609375 10.203125 -11.609375 C 9.148438 -11.609375 8.269531 -11.257812 7.5625 -10.5625 Z M 7.5625 -10.5625 "/></g></g></g><g fill="#000000" fill-opacity="1"><g transform="translate(279.446127, 106.325046)"><g><path d="M 1.84375 0 L 1.84375 -15.8125 L 7.296875 -15.8125 L 7.296875 -13.53125 L 7.359375 -13.53125 C 7.398438 -13.613281 7.46875 -13.710938 7.5625 -13.828125 C 7.65625 -13.953125 7.851562 -14.164062 8.15625 -14.46875 C 8.46875 -14.78125 8.796875 -15.0625 9.140625 -15.3125 C 9.492188 -15.5625 9.945312 -15.78125 10.5 -15.96875 C 11.0625 -16.164062 11.628906 -16.265625 12.203125 -16.265625 C 12.796875 -16.265625 13.378906 -16.179688 13.953125 -16.015625 C 14.535156 -15.859375 14.957031 -15.695312 15.21875 -15.53125 L 15.65625 -15.28125 L 13.375 -10.65625 C 12.695312 -11.238281 11.75 -11.53125 10.53125 -11.53125 C 9.875 -11.53125 9.3125 -11.382812 8.84375 -11.09375 C 8.375 -10.800781 8.039062 -10.445312 7.84375 -10.03125 C 7.644531 -9.625 7.503906 -9.273438 7.421875 -8.984375 C 7.335938 -8.703125 7.296875 -8.476562 7.296875 -8.3125 L 7.296875 0 Z M 1.84375 0 "/></g></g></g><g fill="#000000" fill-opacity="1"><g transform="translate(294.542257, 106.325046)"><g><path d="M 2.921875 -1.953125 C 1.441406 -3.566406 0.703125 -5.546875 0.703125 -7.890625 C 0.703125 -10.234375 1.441406 -12.210938 2.921875 -13.828125 C 4.398438 -15.453125 6.28125 -16.265625 8.5625 -16.265625 C 10.65625 -16.265625 12.382812 -15.609375 13.75 -14.296875 L 13.75 -15.8125 L 19.203125 -15.8125 L 19.203125 0 L 13.796875 0 L 13.796875 -1.78125 L 13.75 -1.78125 C 12.382812 -0.28125 10.65625 0.46875 8.5625 0.46875 C 6.28125 0.46875 4.398438 -0.335938 2.921875 -1.953125 Z M 7.5625 -10.5625 C 6.851562 -9.863281 6.5 -8.96875 6.5 -7.875 C 6.5 -6.789062 6.835938 -5.90625 7.515625 -5.21875 C 8.191406 -4.53125 9.085938 -4.1875 10.203125 -4.1875 C 11.265625 -4.1875 12.140625 -4.535156 12.828125 -5.234375 C 13.515625 -5.929688 13.859375 -6.816406 13.859375 -7.890625 C 13.859375 -8.972656 13.503906 -9.863281 12.796875 -10.5625 C 12.085938 -11.257812 11.222656 -11.609375 10.203125 -11.609375 C 9.148438 -11.609375 8.269531 -11.257812 7.5625 -10.5625 Z M 7.5625 -10.5625 "/></g></g></g><g fill="#000000" fill-opacity="1"><g transform="translate(315.368787, 106.325046)"><g><path d="M 2.765625 -15.8125 L 2.765625 -21.6875 L 8.234375 -21.6875 L 8.234375 -15.8125 L 11.5625 -15.8125 L 11.5625 -11.640625 L 8.234375 -11.640625 L 8.234375 -6.625 C 8.234375 -5.164062 8.640625 -4.4375 9.453125 -4.4375 C 9.660156 -4.4375 9.878906 -4.476562 10.109375 -4.5625 C 10.335938 -4.644531 10.507812 -4.726562 10.625 -4.8125 L 10.8125 -4.9375 L 12.171875 -0.53125 C 11.003906 0.132812 9.671875 0.46875 8.171875 0.46875 C 7.140625 0.46875 6.253906 0.289062 5.515625 -0.0625 C 4.773438 -0.425781 4.210938 -0.910156 3.828125 -1.515625 C 3.453125 -2.128906 3.179688 -2.769531 3.015625 -3.4375 C 2.847656 -4.101562 2.765625 -4.816406 2.765625 -5.578125 L 2.765625 -11.640625 L 0.5 -11.640625 L 0.5 -15.8125 Z M 2.765625 -15.8125 "/></g></g></g><g fill="#000000" fill-opacity="1"><g transform="translate(327.538159, 106.325046)"><g><path d="M 3.34375 -1.875 C 1.582031 -3.4375 0.703125 -5.441406 0.703125 -7.890625 C 0.703125 -10.335938 1.613281 -12.34375 3.4375 -13.90625 C 5.269531 -15.476562 7.535156 -16.265625 10.234375 -16.265625 C 12.878906 -16.265625 15.109375 -15.472656 16.921875 -13.890625 C 18.742188 -12.316406 19.65625 -10.316406 19.65625 -7.890625 C 19.65625 -5.460938 18.765625 -3.460938 16.984375 -1.890625 C 15.210938 -0.316406 12.960938 0.46875 10.234375 0.46875 C 7.398438 0.46875 5.101562 -0.3125 3.34375 -1.875 Z M 7.5625 -10.5625 C 6.851562 -9.863281 6.5 -8.96875 6.5 -7.875 C 6.5 -6.789062 6.835938 -5.90625 7.515625 -5.21875 C 8.191406 -4.53125 9.085938 -4.1875 10.203125 -4.1875 C 11.265625 -4.1875 12.140625 -4.535156 12.828125 -5.234375 C 13.515625 -5.929688 13.859375 -6.816406 13.859375 -7.890625 C 13.859375 -8.972656 13.503906 -9.863281 12.796875 -10.5625 C 12.085938 -11.257812 11.222656 -11.609375 10.203125 -11.609375 C 9.148438 -11.609375 8.269531 -11.257812 7.5625 -10.5625 Z M 7.5625 -10.5625 "/></g></g></g><g fill="#000000" fill-opacity="1"><g transform="translate(347.840984, 106.325046)"><g><path d="M 1.84375 0 L 1.84375 -15.8125 L 7.296875 -15.8125 L 7.296875 -13.53125 L 7.359375 -13.53125 C 7.398438 -13.613281 7.46875 -13.710938 7.5625 -13.828125 C 7.65625 -13.953125 7.851562 -14.164062 8.15625 -14.46875 C 8.46875 -14.78125 8.796875 -15.0625 9.140625 -15.3125 C 9.492188 -15.5625 9.945312 -15.78125 10.5 -15.96875 C 11.0625 -16.164062 11.628906 -16.265625 12.203125 -16.265625 C 12.796875 -16.265625 13.378906 -16.179688 13.953125 -16.015625 C 14.535156 -15.859375 14.957031 -15.695312 15.21875 -15.53125 L 15.65625 -15.28125 L 13.375 -10.65625 C 12.695312 -11.238281 11.75 -11.53125 10.53125 -11.53125 C 9.875 -11.53125 9.3125 -11.382812 8.84375 -11.09375 C 8.375 -10.800781 8.039062 -10.445312 7.84375 -10.03125 C 7.644531 -9.625 7.503906 -9.273438 7.421875 -8.984375 C 7.335938 -8.703125 7.296875 -8.476562 7.296875 -8.3125 L 7.296875 0 Z M 1.84375 0 "/></g></g></g><g fill="#000000" fill-opacity="1"><g transform="translate(363.183665, 106.325046)"><g><path d="M 2.375 -24.609375 C 3.007812 -25.253906 3.769531 -25.578125 4.65625 -25.578125 C 5.539062 -25.578125 6.300781 -25.253906 6.9375 -24.609375 C 7.570312 -23.972656 7.890625 -23.210938 7.890625 -22.328125 C 7.890625 -21.453125 7.570312 -20.695312 6.9375 -20.0625 C 6.300781 -19.425781 5.539062 -19.109375 4.65625 -19.109375 C 3.769531 -19.109375 3.007812 -19.425781 2.375 -20.0625 C 1.738281 -20.695312 1.421875 -21.453125 1.421875 -22.328125 C 1.421875 -23.210938 1.738281 -23.972656 2.375 -24.609375 Z M 1.84375 -15.8125 L 1.84375 0 L 7.296875 0 L 7.296875 -15.8125 Z M 1.84375 -15.8125 "/></g></g></g><g fill="#000000" fill-opacity="1"><g transform="translate(372.487849, 106.325046)"><g><path d="M 17.84375 -7.15625 L 6.375 -7.15625 C 6.375 -6.039062 6.734375 -5.210938 7.453125 -4.671875 C 8.171875 -4.140625 8.953125 -3.875 9.796875 -3.875 C 10.679688 -3.875 11.378906 -3.992188 11.890625 -4.234375 C 12.398438 -4.472656 12.988281 -4.941406 13.65625 -5.640625 L 17.59375 -3.671875 C 15.945312 -0.910156 13.210938 0.46875 9.390625 0.46875 C 7.015625 0.46875 4.972656 -0.347656 3.265625 -1.984375 C 1.554688 -3.617188 0.703125 -5.585938 0.703125 -7.890625 C 0.703125 -10.191406 1.554688 -12.160156 3.265625 -13.796875 C 4.972656 -15.441406 7.015625 -16.265625 9.390625 -16.265625 C 11.898438 -16.265625 13.941406 -15.539062 15.515625 -14.09375 C 17.085938 -12.644531 17.875 -10.578125 17.875 -7.890625 C 17.875 -7.515625 17.863281 -7.269531 17.84375 -7.15625 Z M 6.53125 -10.171875 L 12.546875 -10.171875 C 12.421875 -10.992188 12.09375 -11.625 11.5625 -12.0625 C 11.039062 -12.5 10.367188 -12.71875 9.546875 -12.71875 C 8.648438 -12.71875 7.929688 -12.484375 7.390625 -12.015625 C 6.859375 -11.546875 6.570312 -10.929688 6.53125 -10.171875 Z M 6.53125 -10.171875 "/></g></g></g><g fill="#000000" fill-opacity="1"><g transform="translate(390.942155, 106.325046)"><g><path d="M 8.71875 -16.265625 C 9.625 -16.265625 10.515625 -16.160156 11.390625 -15.953125 C 12.273438 -15.753906 12.9375 -15.550781 13.375 -15.34375 L 14.015625 -15.03125 L 12.234375 -11.46875 C 11.003906 -12.125 9.832031 -12.453125 8.71875 -12.453125 C 8.101562 -12.453125 7.664062 -12.382812 7.40625 -12.25 C 7.15625 -12.113281 7.03125 -11.863281 7.03125 -11.5 C 7.03125 -11.414062 7.039062 -11.332031 7.0625 -11.25 C 7.082031 -11.164062 7.117188 -11.085938 7.171875 -11.015625 C 7.234375 -10.941406 7.289062 -10.878906 7.34375 -10.828125 C 7.394531 -10.773438 7.484375 -10.71875 7.609375 -10.65625 C 7.734375 -10.59375 7.832031 -10.546875 7.90625 -10.515625 C 7.976562 -10.484375 8.09375 -10.4375 8.25 -10.375 C 8.414062 -10.320312 8.539062 -10.28125 8.625 -10.25 C 8.707031 -10.21875 8.847656 -10.171875 9.046875 -10.109375 C 9.242188 -10.046875 9.390625 -10.003906 9.484375 -9.984375 C 10.128906 -9.796875 10.6875 -9.585938 11.15625 -9.359375 C 11.625 -9.140625 12.117188 -8.832031 12.640625 -8.4375 C 13.171875 -8.050781 13.578125 -7.554688 13.859375 -6.953125 C 14.148438 -6.359375 14.296875 -5.6875 14.296875 -4.9375 C 14.296875 -1.332031 11.800781 0.46875 6.8125 0.46875 C 5.675781 0.46875 4.597656 0.296875 3.578125 -0.046875 C 2.566406 -0.398438 1.835938 -0.753906 1.390625 -1.109375 L 0.703125 -1.65625 L 2.921875 -5.390625 C 3.085938 -5.242188 3.300781 -5.070312 3.5625 -4.875 C 3.832031 -4.6875 4.316406 -4.421875 5.015625 -4.078125 C 5.710938 -3.742188 6.320312 -3.578125 6.84375 -3.578125 C 7.96875 -3.578125 8.53125 -3.957031 8.53125 -4.71875 C 8.53125 -5.0625 8.382812 -5.332031 8.09375 -5.53125 C 7.8125 -5.726562 7.328125 -5.945312 6.640625 -6.1875 C 5.953125 -6.4375 5.410156 -6.664062 5.015625 -6.875 C 4.035156 -7.382812 3.253906 -7.960938 2.671875 -8.609375 C 2.097656 -9.253906 1.8125 -10.113281 1.8125 -11.1875 C 1.8125 -12.789062 2.429688 -14.035156 3.671875 -14.921875 C 4.921875 -15.816406 6.601562 -16.265625 8.71875 -16.265625 Z M 8.71875 -16.265625 "/></g></g></g><g fill="#000000" fill-opacity="1"><g transform="translate(161.376087, 137.825044)"><g><path d="M 6.828125 4.1875 L 4.5625 5.15625 C 4.46875 5.03125 4.335938 4.863281 4.171875 4.65625 C 4.015625 4.445312 3.738281 3.976562 3.34375 3.25 C 2.945312 2.519531 2.597656 1.753906 2.296875 0.953125 C 1.992188 0.160156 1.71875 -0.851562 1.46875 -2.09375 C 1.21875 -3.34375 1.09375 -4.609375 1.09375 -5.890625 C 1.09375 -7.203125 1.21875 -8.492188 1.46875 -9.765625 C 1.726562 -11.035156 2.039062 -12.101562 2.40625 -12.96875 C 2.78125 -13.84375 3.148438 -14.625 3.515625 -15.3125 C 3.878906 -16 4.1875 -16.507812 4.4375 -16.84375 L 4.828125 -17.34375 L 7.109375 -16.359375 C 7.035156 -16.265625 6.9375 -16.128906 6.8125 -15.953125 C 6.6875 -15.773438 6.460938 -15.363281 6.140625 -14.71875 C 5.828125 -14.070312 5.539062 -13.378906 5.28125 -12.640625 C 5.03125 -11.898438 4.804688 -10.914062 4.609375 -9.6875 C 4.410156 -8.46875 4.3125 -7.203125 4.3125 -5.890625 C 4.3125 -4.628906 4.394531 -3.425781 4.5625 -2.28125 C 4.738281 -1.132812 4.953125 -0.1875 5.203125 0.5625 C 5.460938 1.3125 5.710938 1.972656 5.953125 2.546875 C 6.191406 3.117188 6.398438 3.535156 6.578125 3.796875 Z M 6.828125 4.1875 "/></g></g></g><g fill="#000000" fill-opacity="1"><g transform="translate(169.357391, 137.825044)"><g><path d="M 8.296875 -16.34375 L 8.296875 -4.609375 C 8.296875 -3.015625 7.859375 -1.796875 6.984375 -0.953125 C 6.109375 -0.117188 4.847656 0.296875 3.203125 0.296875 C 2.773438 0.296875 2.347656 0.242188 1.921875 0.140625 C 1.492188 0.0351562 1.132812 -0.0859375 0.84375 -0.234375 C 0.5625 -0.390625 0.300781 -0.546875 0.0625 -0.703125 C -0.164062 -0.867188 -0.332031 -1.003906 -0.4375 -1.109375 L -0.609375 -1.265625 L 0.578125 -4.375 C 1.359375 -3.632812 2.0625 -3.265625 2.6875 -3.265625 C 3.257812 -3.265625 3.71875 -3.453125 4.0625 -3.828125 C 4.40625 -4.203125 4.578125 -4.78125 4.578125 -5.5625 L 4.578125 -16.34375 Z M 8.296875 -16.34375 "/></g></g></g><g fill="#000000" fill-opacity="1"><g transform="translate(178.645805, 137.825044)"><g><path d="M 11.46875 -4.59375 L 4.09375 -4.59375 C 4.09375 -3.882812 4.320312 -3.359375 4.78125 -3.015625 C 5.25 -2.671875 5.753906 -2.5 6.296875 -2.5 C 6.867188 -2.5 7.316406 -2.570312 7.640625 -2.71875 C 7.972656 -2.875 8.351562 -3.175781 8.78125 -3.625 L 11.3125 -2.359375 C 10.257812 -0.585938 8.503906 0.296875 6.046875 0.296875 C 4.515625 0.296875 3.195312 -0.226562 2.09375 -1.28125 C 1 -2.332031 0.453125 -3.597656 0.453125 -5.078125 C 0.453125 -6.554688 1 -7.820312 2.09375 -8.875 C 3.195312 -9.9375 4.515625 -10.46875 6.046875 -10.46875 C 7.648438 -10.46875 8.957031 -10 9.96875 -9.0625 C 10.976562 -8.132812 11.484375 -6.804688 11.484375 -5.078125 C 11.484375 -4.835938 11.476562 -4.675781 11.46875 -4.59375 Z M 4.203125 -6.53125 L 8.0625 -6.53125 C 7.976562 -7.0625 7.769531 -7.46875 7.4375 -7.75 C 7.101562 -8.039062 6.671875 -8.1875 6.140625 -8.1875 C 5.554688 -8.1875 5.09375 -8.03125 4.75 -7.71875 C 4.40625 -7.414062 4.222656 -7.019531 4.203125 -6.53125 Z M 4.203125 -6.53125 "/></g></g></g><g fill="#000000" fill-opacity="1"><g transform="translate(190.588046, 137.825044)"><g><path d="M 11.46875 -4.59375 L 4.09375 -4.59375 C 4.09375 -3.882812 4.320312 -3.359375 4.78125 -3.015625 C 5.25 -2.671875 5.753906 -2.5 6.296875 -2.5 C 6.867188 -2.5 7.316406 -2.570312 7.640625 -2.71875 C 7.972656 -2.875 8.351562 -3.175781 8.78125 -3.625 L 11.3125 -2.359375 C 10.257812 -0.585938 8.503906 0.296875 6.046875 0.296875 C 4.515625 0.296875 3.195312 -0.226562 2.09375 -1.28125 C 1 -2.332031 0.453125 -3.597656 0.453125 -5.078125 C 0.453125 -6.554688 1 -7.820312 2.09375 -8.875 C 3.195312 -9.9375 4.515625 -10.46875 6.046875 -10.46875 C 7.648438 -10.46875 8.957031 -10 9.96875 -9.0625 C 10.976562 -8.132812 11.484375 -6.804688 11.484375 -5.078125 C 11.484375 -4.835938 11.476562 -4.675781 11.46875 -4.59375 Z M 4.203125 -6.53125 L 8.0625 -6.53125 C 7.976562 -7.0625 7.769531 -7.46875 7.4375 -7.75 C 7.101562 -8.039062 6.671875 -8.1875 6.140625 -8.1875 C 5.554688 -8.1875 5.09375 -8.03125 4.75 -7.71875 C 4.40625 -7.414062 4.222656 -7.019531 4.203125 -6.53125 Z M 4.203125 -6.53125 "/></g></g></g><g fill="#000000" fill-opacity="1"><g transform="translate(202.530287, 137.825044)"><g><path d="M 1.875 -1.25 C 0.925781 -2.289062 0.453125 -3.5625 0.453125 -5.0625 C 0.453125 -6.570312 0.925781 -7.847656 1.875 -8.890625 C 2.832031 -9.941406 4.046875 -10.46875 5.515625 -10.46875 C 6.859375 -10.46875 7.96875 -10.039062 8.84375 -9.1875 L 8.84375 -17.03125 L 12.34375 -17.03125 L 12.34375 0 L 8.875 0 L 8.875 -1.15625 L 8.84375 -1.15625 C 7.96875 -0.1875 6.859375 0.296875 5.515625 0.296875 C 4.046875 0.296875 2.832031 -0.21875 1.875 -1.25 Z M 4.859375 -6.796875 C 4.410156 -6.347656 4.1875 -5.769531 4.1875 -5.0625 C 4.1875 -4.363281 4.398438 -3.789062 4.828125 -3.34375 C 5.265625 -2.90625 5.84375 -2.6875 6.5625 -2.6875 C 7.25 -2.6875 7.8125 -2.910156 8.25 -3.359375 C 8.695312 -3.816406 8.921875 -4.390625 8.921875 -5.078125 C 8.921875 -5.773438 8.691406 -6.347656 8.234375 -6.796875 C 7.773438 -7.242188 7.21875 -7.46875 6.5625 -7.46875 C 5.882812 -7.46875 5.316406 -7.242188 4.859375 -6.796875 Z M 4.859375 -6.796875 "/></g></g></g><g fill="#000000" fill-opacity="1"><g transform="translate(216.056905, 137.825044)"><g><path d="M 1.515625 -15.828125 C 1.929688 -16.234375 2.421875 -16.4375 2.984375 -16.4375 C 3.554688 -16.4375 4.046875 -16.234375 4.453125 -15.828125 C 4.867188 -15.421875 5.078125 -14.929688 5.078125 -14.359375 C 5.078125 -13.796875 4.867188 -13.304688 4.453125 -12.890625 C 4.046875 -12.484375 3.554688 -12.28125 2.984375 -12.28125 C 2.421875 -12.28125 1.929688 -12.484375 1.515625 -12.890625 C 1.109375 -13.304688 0.90625 -13.796875 0.90625 -14.359375 C 0.90625 -14.929688 1.109375 -15.421875 1.515625 -15.828125 Z M 1.1875 -10.15625 L 1.1875 0 L 4.703125 0 L 4.703125 -10.15625 Z M 1.1875 -10.15625 "/></g></g></g><g fill="#000000" fill-opacity="1"><g transform="translate(222.037931, 137.825044)"><g><path d="M 1.1875 0 L 1.1875 -10.15625 L 4.703125 -10.15625 L 4.703125 -9.09375 L 4.734375 -9.09375 C 5.648438 -10.007812 6.617188 -10.46875 7.640625 -10.46875 C 8.378906 -10.46875 9.070312 -10.3125 9.71875 -10 C 10.375 -9.695312 10.863281 -9.226562 11.1875 -8.59375 C 12.21875 -9.84375 13.34375 -10.46875 14.5625 -10.46875 C 15.644531 -10.46875 16.578125 -10.160156 17.359375 -9.546875 C 18.140625 -8.941406 18.53125 -7.992188 18.53125 -6.703125 L 18.53125 0 L 15.015625 0 L 15.015625 -5.75 C 15.015625 -6.289062 14.863281 -6.738281 14.5625 -7.09375 C 14.269531 -7.457031 13.828125 -7.640625 13.234375 -7.640625 C 12.722656 -7.640625 12.332031 -7.484375 12.0625 -7.171875 C 11.789062 -6.867188 11.640625 -6.5 11.609375 -6.0625 L 11.609375 0 L 8.109375 0 L 8.109375 -5.75 C 8.109375 -6.289062 7.957031 -6.738281 7.65625 -7.09375 C 7.363281 -7.457031 6.914062 -7.640625 6.3125 -7.640625 C 5.78125 -7.640625 5.378906 -7.472656 5.109375 -7.140625 C 4.835938 -6.804688 4.703125 -6.40625 4.703125 -5.9375 L 4.703125 0 Z M 1.1875 0 "/></g></g></g><g fill="#000000" fill-opacity="1"><g transform="translate(241.545575, 137.825044)"><g><path d="M 11.46875 -4.59375 L 4.09375 -4.59375 C 4.09375 -3.882812 4.320312 -3.359375 4.78125 -3.015625 C 5.25 -2.671875 5.753906 -2.5 6.296875 -2.5 C 6.867188 -2.5 7.316406 -2.570312 7.640625 -2.71875 C 7.972656 -2.875 8.351562 -3.175781 8.78125 -3.625 L 11.3125 -2.359375 C 10.257812 -0.585938 8.503906 0.296875 6.046875 0.296875 C 4.515625 0.296875 3.195312 -0.226562 2.09375 -1.28125 C 1 -2.332031 0.453125 -3.597656 0.453125 -5.078125 C 0.453125 -6.554688 1 -7.820312 2.09375 -8.875 C 3.195312 -9.9375 4.515625 -10.46875 6.046875 -10.46875 C 7.648438 -10.46875 8.957031 -10 9.96875 -9.0625 C 10.976562 -8.132812 11.484375 -6.804688 11.484375 -5.078125 C 11.484375 -4.835938 11.476562 -4.675781 11.46875 -4.59375 Z M 4.203125 -6.53125 L 8.0625 -6.53125 C 7.976562 -7.0625 7.769531 -7.46875 7.4375 -7.75 C 7.101562 -8.039062 6.671875 -8.1875 6.140625 -8.1875 C 5.554688 -8.1875 5.09375 -8.03125 4.75 -7.71875 C 4.40625 -7.414062 4.222656 -7.019531 4.203125 -6.53125 Z M 4.203125 -6.53125 "/></g></g></g><g fill="#000000" fill-opacity="1"><g transform="translate(253.388744, 137.825044)"><g><path d="M 1.78125 -10.15625 L 1.78125 -13.953125 L 5.296875 -13.953125 L 5.296875 -10.15625 L 7.4375 -10.15625 L 7.4375 -7.484375 L 5.296875 -7.484375 L 5.296875 -4.265625 C 5.296875 -3.328125 5.554688 -2.859375 6.078125 -2.859375 C 6.210938 -2.859375 6.351562 -2.882812 6.5 -2.9375 C 6.644531 -2.988281 6.753906 -3.039062 6.828125 -3.09375 L 6.953125 -3.171875 L 7.828125 -0.34375 C 7.078125 0.0820312 6.21875 0.296875 5.25 0.296875 C 4.59375 0.296875 4.023438 0.179688 3.546875 -0.046875 C 3.066406 -0.273438 2.703125 -0.582031 2.453125 -0.96875 C 2.210938 -1.363281 2.039062 -1.773438 1.9375 -2.203125 C 1.832031 -2.640625 1.78125 -3.101562 1.78125 -3.59375 L 1.78125 -7.484375 L 0.3125 -7.484375 L 0.3125 -10.15625 Z M 1.78125 -10.15625 "/></g></g></g><g fill="#000000" fill-opacity="1"><g transform="translate(261.211605, 137.825044)"><g><path d="M 1.1875 0 L 1.1875 -17.03125 L 4.703125 -17.03125 L 4.703125 0 Z M 1.1875 0 "/></g></g></g><g fill="#000000" fill-opacity="1"><g transform="translate(267.093605, 137.825044)"><g><path d="M 1.875 -1.25 C 0.925781 -2.289062 0.453125 -3.5625 0.453125 -5.0625 C 0.453125 -6.570312 0.925781 -7.847656 1.875 -8.890625 C 2.832031 -9.941406 4.046875 -10.46875 5.515625 -10.46875 C 6.859375 -10.46875 7.96875 -10.039062 8.84375 -9.1875 L 8.84375 -10.15625 L 12.34375 -10.15625 L 12.34375 0 L 8.875 0 L 8.875 -1.15625 L 8.84375 -1.15625 C 7.96875 -0.1875 6.859375 0.296875 5.515625 0.296875 C 4.046875 0.296875 2.832031 -0.21875 1.875 -1.25 Z M 4.859375 -6.796875 C 4.410156 -6.347656 4.1875 -5.769531 4.1875 -5.0625 C 4.1875 -4.363281 4.398438 -3.789062 4.828125 -3.34375 C 5.265625 -2.90625 5.84375 -2.6875 6.5625 -2.6875 C 7.25 -2.6875 7.8125 -2.910156 8.25 -3.359375 C 8.695312 -3.816406 8.921875 -4.390625 8.921875 -5.078125 C 8.921875 -5.773438 8.691406 -6.347656 8.234375 -6.796875 C 7.773438 -7.242188 7.21875 -7.46875 6.5625 -7.46875 C 5.882812 -7.46875 5.316406 -7.242188 4.859375 -6.796875 Z M 4.859375 -6.796875 "/></g></g></g><g fill="#000000" fill-opacity="1"><g transform="translate(280.620223, 137.825044)"><g><path d="M 3.421875 5.15625 L 1.15625 4.1875 C 1.21875 4.09375 1.300781 3.953125 1.40625 3.765625 C 1.519531 3.585938 1.722656 3.1875 2.015625 2.5625 C 2.304688 1.9375 2.5625 1.265625 2.78125 0.546875 C 3.007812 -0.160156 3.210938 -1.09375 3.390625 -2.25 C 3.578125 -3.414062 3.671875 -4.628906 3.671875 -5.890625 C 3.671875 -7.203125 3.570312 -8.460938 3.375 -9.671875 C 3.1875 -10.878906 2.953125 -11.875 2.671875 -12.65625 C 2.398438 -13.4375 2.128906 -14.117188 1.859375 -14.703125 C 1.585938 -15.285156 1.351562 -15.707031 1.15625 -15.96875 L 0.875 -16.359375 L 3.15625 -17.34375 C 3.257812 -17.21875 3.390625 -17.039062 3.546875 -16.8125 C 3.710938 -16.59375 4.007812 -16.101562 4.4375 -15.34375 C 4.875 -14.582031 5.253906 -13.785156 5.578125 -12.953125 C 5.910156 -12.117188 6.210938 -11.0625 6.484375 -9.78125 C 6.753906 -8.5 6.890625 -7.203125 6.890625 -5.890625 C 6.890625 -4.609375 6.769531 -3.351562 6.53125 -2.125 C 6.300781 -0.894531 6.015625 0.132812 5.671875 0.96875 C 5.328125 1.8125 4.984375 2.5625 4.640625 3.21875 C 4.304688 3.875 4.019531 4.359375 3.78125 4.671875 Z M 3.421875 5.15625 "/></g></g></g></svg>