<svg xmlns="http://www.w3.org/2000/svg" xmlns:xlink="http://www.w3.org/1999/xlink" width="600" zoomAndPan="magnify" viewBox="0 0 450 225" height="300" preserveAspectRatio="xMidYMid meet" version="1.0"><defs><g/></defs><rect x="-45" width="540" fill="#ffffff" y="-22.5" height="270" fill-opacity="1"/><rect x="-45" width="540" fill="#ffffff" y="-22.5" height="270" fill-opacity="1"/><g fill="#000000" fill-opacity="1"><g transform="translate(27.703124, 84.949986)"><g><path d="M 7.640625 -15.765625 L 7.640625 0 L 1.84375 0 L 1.84375 -25.40625 L 7.640625 -25.40625 L 17.734375 -9.640625 L 17.796875 -9.640625 L 17.796875 -25.40625 L 23.59375 -25.40625 L 23.59375 0 L 17.796875 0 L 7.703125 -15.765625 Z M 7.640625 -15.765625 "/></g></g></g><g fill="#000000" fill-opacity="1"><g transform="translate(53.131655, 84.949986)"><g><path d="M 6.984375 -15.796875 L 6.984375 -8.28125 C 6.984375 -6.71875 7.21875 -5.609375 7.6875 -4.953125 C 8.164062 -4.296875 8.96875 -3.96875 10.09375 -3.96875 C 11.226562 -3.96875 12.03125 -4.296875 12.5 -4.953125 C 12.976562 -5.609375 13.21875 -6.71875 13.21875 -8.28125 L 13.21875 -15.796875 L 18.65625 -15.796875 L 18.65625 -6.953125 C 18.65625 -4.328125 17.972656 -2.429688 16.609375 -1.265625 C 15.242188 -0.109375 13.070312 0.46875 10.09375 0.46875 C 7.125 0.46875 4.957031 -0.109375 3.59375 -1.265625 C 2.226562 -2.429688 1.546875 -4.328125 1.546875 -6.953125 L 1.546875 -15.796875 Z M 6.984375 -15.796875 "/></g></g></g><g fill="#000000" fill-opacity="1"><g transform="translate(73.172731, 84.949986)"><g><path d="M 5.84375 -15.796875 L 9.703125 -7.203125 L 13.546875 -15.796875 L 20.015625 -15.796875 L 11.546875 0 L 7.859375 0 L -0.609375 -15.796875 Z M 5.84375 -15.796875 "/></g></g></g><g fill="#000000" fill-opacity="1"><g transform="translate(92.567376, 84.949986)"><g><path d="M 2.375 -24.609375 C 3.007812 -25.242188 3.765625 -25.5625 4.640625 -25.5625 C 5.523438 -25.5625 6.285156 -25.242188 6.921875 -24.609375 C 7.566406 -23.972656 7.890625 -23.210938 7.890625 -22.328125 C 7.890625 -21.441406 7.566406 -20.679688 6.921875 -20.046875 C 6.285156 -19.410156 5.523438 -19.09375 4.640625 -19.09375 C 3.765625 -19.09375 3.007812 -19.410156 2.375 -20.046875 C 1.738281 -20.679688 1.421875 -21.441406 1.421875 -22.328125 C 1.421875 -23.210938 1.738281 -23.972656 2.375 -24.609375 Z M 1.84375 -15.796875 L 1.84375 0 L 7.296875 0 L 7.296875 -15.796875 Z M 1.84375 -15.796875 "/></g></g></g><g fill="#000000" fill-opacity="1"><g transform="translate(101.864487, 84.949986)"><g><path d="M 8.71875 -16.265625 C 9.625 -16.265625 10.515625 -16.160156 11.390625 -15.953125 C 12.273438 -15.742188 12.929688 -15.539062 13.359375 -15.34375 L 14.015625 -15.03125 L 12.21875 -11.453125 C 10.988281 -12.109375 9.820312 -12.4375 8.71875 -12.4375 C 8.101562 -12.4375 7.664062 -12.367188 7.40625 -12.234375 C 7.144531 -12.109375 7.015625 -11.859375 7.015625 -11.484375 C 7.015625 -11.398438 7.023438 -11.316406 7.046875 -11.234375 C 7.066406 -11.160156 7.109375 -11.085938 7.171875 -11.015625 C 7.234375 -10.941406 7.289062 -10.878906 7.34375 -10.828125 C 7.394531 -10.773438 7.484375 -10.71875 7.609375 -10.65625 C 7.734375 -10.59375 7.828125 -10.546875 7.890625 -10.515625 C 7.960938 -10.484375 8.082031 -10.4375 8.25 -10.375 C 8.414062 -10.3125 8.539062 -10.265625 8.625 -10.234375 C 8.707031 -10.203125 8.84375 -10.15625 9.03125 -10.09375 C 9.226562 -10.039062 9.378906 -10.003906 9.484375 -9.984375 C 10.117188 -9.796875 10.671875 -9.585938 11.140625 -9.359375 C 11.617188 -9.140625 12.117188 -8.832031 12.640625 -8.4375 C 13.160156 -8.050781 13.566406 -7.554688 13.859375 -6.953125 C 14.148438 -6.359375 14.296875 -5.679688 14.296875 -4.921875 C 14.296875 -1.328125 11.800781 0.46875 6.8125 0.46875 C 5.675781 0.46875 4.597656 0.296875 3.578125 -0.046875 C 2.566406 -0.398438 1.835938 -0.753906 1.390625 -1.109375 L 0.703125 -1.65625 L 2.921875 -5.390625 C 3.085938 -5.242188 3.300781 -5.070312 3.5625 -4.875 C 3.832031 -4.6875 4.316406 -4.421875 5.015625 -4.078125 C 5.710938 -3.742188 6.320312 -3.578125 6.84375 -3.578125 C 7.96875 -3.578125 8.53125 -3.957031 8.53125 -4.71875 C 8.53125 -5.0625 8.382812 -5.332031 8.09375 -5.53125 C 7.8125 -5.726562 7.328125 -5.945312 6.640625 -6.1875 C 5.953125 -6.4375 5.410156 -6.664062 5.015625 -6.875 C 4.035156 -7.382812 3.253906 -7.960938 2.671875 -8.609375 C 2.097656 -9.253906 1.8125 -10.109375 1.8125 -11.171875 C 1.8125 -12.773438 2.429688 -14.023438 3.671875 -14.921875 C 4.921875 -15.816406 6.601562 -16.265625 8.71875 -16.265625 Z M 8.71875 -16.265625 "/></g></g></g><g fill="#000000" fill-opacity="1"><g transform="translate(116.733623, 84.949986)"><g><path d="M 2.765625 -15.796875 L 2.765625 -21.6875 L 8.21875 -21.6875 L 8.21875 -15.796875 L 11.546875 -15.796875 L 11.546875 -11.640625 L 8.21875 -11.640625 L 8.21875 -6.625 C 8.21875 -5.164062 8.628906 -4.4375 9.453125 -4.4375 C 9.660156 -4.4375 9.875 -4.476562 10.09375 -4.5625 C 10.320312 -4.644531 10.5 -4.722656 10.625 -4.796875 L 10.8125 -4.921875 L 12.171875 -0.53125 C 10.992188 0.132812 9.65625 0.46875 8.15625 0.46875 C 7.132812 0.46875 6.253906 0.289062 5.515625 -0.0625 C 4.773438 -0.425781 4.210938 -0.910156 3.828125 -1.515625 C 3.453125 -2.128906 3.179688 -2.769531 3.015625 -3.4375 C 2.847656 -4.101562 2.765625 -4.816406 2.765625 -5.578125 L 2.765625 -11.640625 L 0.5 -11.640625 L 0.5 -15.796875 Z M 2.765625 -15.796875 "/></g></g></g><g fill="#000000" fill-opacity="1"><g transform="translate(128.832168, 84.949986)"><g><path d="M 2.921875 -1.953125 C 1.441406 -3.566406 0.703125 -5.539062 0.703125 -7.875 C 0.703125 -10.21875 1.441406 -12.203125 2.921875 -13.828125 C 4.398438 -15.453125 6.28125 -16.265625 8.5625 -16.265625 C 10.65625 -16.265625 12.378906 -15.609375 13.734375 -14.296875 L 13.734375 -15.796875 L 19.1875 -15.796875 L 19.1875 0 L 13.796875 0 L 13.796875 -1.78125 L 13.734375 -1.78125 C 12.378906 -0.28125 10.65625 0.46875 8.5625 0.46875 C 6.28125 0.46875 4.398438 -0.335938 2.921875 -1.953125 Z M 7.5625 -10.5625 C 6.851562 -9.863281 6.5 -8.96875 6.5 -7.875 C 6.5 -6.789062 6.835938 -5.90625 7.515625 -5.21875 C 8.191406 -4.53125 9.082031 -4.1875 10.1875 -4.1875 C 11.257812 -4.1875 12.140625 -4.535156 12.828125 -5.234375 C 13.515625 -5.929688 13.859375 -6.816406 13.859375 -7.890625 C 13.859375 -8.972656 13.503906 -9.863281 12.796875 -10.5625 C 12.085938 -11.257812 11.21875 -11.609375 10.1875 -11.609375 C 9.144531 -11.609375 8.269531 -11.257812 7.5625 -10.5625 Z M 7.5625 -10.5625 "/></g></g></g><g fill="#000000" fill-opacity="1"><g transform="translate(149.85842, 84.949986)"><g/></g></g><g fill="#000000" fill-opacity="1"><g transform="translate(158.262766, 84.949986)"><g><path d="M 1.84375 -25.40625 L 11.125 -25.40625 C 13.707031 -25.40625 15.796875 -24.738281 17.390625 -23.40625 C 18.992188 -22.070312 19.796875 -20.128906 19.796875 -17.578125 C 19.796875 -15.035156 18.984375 -13.039062 17.359375 -11.59375 C 15.742188 -10.144531 13.664062 -9.421875 11.125 -9.421875 L 7.640625 -9.421875 L 7.640625 0 L 1.84375 0 Z M 7.640625 -14.046875 L 9.265625 -14.046875 C 10.554688 -14.046875 11.617188 -14.304688 12.453125 -14.828125 C 13.285156 -15.347656 13.703125 -16.207031 13.703125 -17.40625 C 13.703125 -18.613281 13.285156 -19.476562 12.453125 -20 C 11.617188 -20.519531 10.554688 -20.78125 9.265625 -20.78125 L 7.640625 -20.78125 Z M 7.640625 -14.046875 "/></g></g></g><g fill="#000000" fill-opacity="1"><g transform="translate(178.765668, 84.949986)"><g><path d="M 1.84375 0 L 1.84375 -26.484375 L 7.296875 -26.484375 L 7.296875 -14.140625 L 7.359375 -14.140625 C 8.773438 -15.554688 10.285156 -16.265625 11.890625 -16.265625 C 12.671875 -16.265625 13.445312 -16.160156 14.21875 -15.953125 C 14.988281 -15.742188 15.726562 -15.421875 16.4375 -14.984375 C 17.144531 -14.554688 17.71875 -13.945312 18.15625 -13.15625 C 18.59375 -12.375 18.8125 -11.457031 18.8125 -10.40625 L 18.8125 0 L 13.359375 0 L 13.359375 -8.9375 C 13.359375 -9.75 13.097656 -10.460938 12.578125 -11.078125 C 12.054688 -11.703125 11.375 -12.015625 10.53125 -12.015625 C 9.707031 -12.015625 8.960938 -11.691406 8.296875 -11.046875 C 7.628906 -10.410156 7.296875 -9.707031 7.296875 -8.9375 L 7.296875 0 Z M 1.84375 0 "/></g></g></g><g fill="#000000" fill-opacity="1"><g transform="translate(199.114647, 84.949986)"><g><path d="M 2.921875 -1.953125 C 1.441406 -3.566406 0.703125 -5.539062 0.703125 -7.875 C 0.703125 -10.21875 1.441406 -12.203125 2.921875 -13.828125 C 4.398438 -15.453125 6.28125 -16.265625 8.5625 -16.265625 C 10.65625 -16.265625 12.378906 -15.609375 13.734375 -14.296875 L 13.734375 -15.796875 L 19.1875 -15.796875 L 19.1875 0 L 13.796875 0 L 13.796875 -1.78125 L 13.734375 -1.78125 C 12.378906 -0.28125 10.65625 0.46875 8.5625 0.46875 C 6.28125 0.46875 4.398438 -0.335938 2.921875 -1.953125 Z M 7.5625 -10.5625 C 6.851562 -9.863281 6.5 -8.96875 6.5 -7.875 C 6.5 -6.789062 6.835938 -5.90625 7.515625 -5.21875 C 8.191406 -4.53125 9.082031 -4.1875 10.1875 -4.1875 C 11.257812 -4.1875 12.140625 -4.535156 12.828125 -5.234375 C 13.515625 -5.929688 13.859375 -6.816406 13.859375 -7.890625 C 13.859375 -8.972656 13.503906 -9.863281 12.796875 -10.5625 C 12.085938 -11.257812 11.21875 -11.609375 10.1875 -11.609375 C 9.144531 -11.609375 8.269531 -11.257812 7.5625 -10.5625 Z M 7.5625 -10.5625 "/></g></g></g><g fill="#000000" fill-opacity="1"><g transform="translate(220.140899, 84.949986)"><g><path d="M 1.84375 0 L 1.84375 -15.796875 L 7.296875 -15.796875 L 7.296875 -13.515625 L 7.359375 -13.515625 C 7.398438 -13.597656 7.46875 -13.703125 7.5625 -13.828125 C 7.65625 -13.953125 7.851562 -14.164062 8.15625 -14.46875 C 8.46875 -14.78125 8.796875 -15.054688 9.140625 -15.296875 C 9.492188 -15.546875 9.945312 -15.769531 10.5 -15.96875 C 11.050781 -16.164062 11.617188 -16.265625 12.203125 -16.265625 C 12.796875 -16.265625 13.378906 -16.179688 13.953125 -16.015625 C 14.523438 -15.847656 14.945312 -15.679688 15.21875 -15.515625 L 15.640625 -15.28125 L 13.359375 -10.65625 C 12.679688 -11.226562 11.738281 -11.515625 10.53125 -11.515625 C 9.875 -11.515625 9.304688 -11.367188 8.828125 -11.078125 C 8.359375 -10.796875 8.023438 -10.445312 7.828125 -10.03125 C 7.640625 -9.625 7.503906 -9.273438 7.421875 -8.984375 C 7.335938 -8.703125 7.296875 -8.476562 7.296875 -8.3125 L 7.296875 0 Z M 1.84375 0 "/></g></g></g><g fill="#000000" fill-opacity="1"><g transform="translate(235.471885, 84.949986)"><g><path d="M 1.84375 0 L 1.84375 -15.796875 L 7.296875 -15.796875 L 7.296875 -14.140625 L 7.359375 -14.140625 C 8.773438 -15.554688 10.285156 -16.265625 11.890625 -16.265625 C 13.035156 -16.265625 14.109375 -16.023438 15.109375 -15.546875 C 16.117188 -15.078125 16.882812 -14.347656 17.40625 -13.359375 C 19 -15.296875 20.742188 -16.265625 22.640625 -16.265625 C 24.316406 -16.265625 25.757812 -15.789062 26.96875 -14.84375 C 28.1875 -13.894531 28.796875 -12.414062 28.796875 -10.40625 L 28.796875 0 L 23.34375 0 L 23.34375 -8.9375 C 23.34375 -9.769531 23.109375 -10.46875 22.640625 -11.03125 C 22.179688 -11.601562 21.492188 -11.890625 20.578125 -11.890625 C 19.773438 -11.890625 19.160156 -11.644531 18.734375 -11.15625 C 18.316406 -10.675781 18.085938 -10.097656 18.046875 -9.421875 L 18.046875 0 L 12.59375 0 L 12.59375 -8.9375 C 12.59375 -9.769531 12.359375 -10.46875 11.890625 -11.03125 C 11.429688 -11.601562 10.742188 -11.890625 9.828125 -11.890625 C 8.984375 -11.890625 8.347656 -11.625 7.921875 -11.09375 C 7.503906 -10.570312 7.296875 -9.953125 7.296875 -9.234375 L 7.296875 0 Z M 1.84375 0 "/></g></g></g><g fill="#000000" fill-opacity="1"><g transform="translate(265.795248, 84.949986)"><g><path d="M 2.921875 -1.953125 C 1.441406 -3.566406 0.703125 -5.539062 0.703125 -7.875 C 0.703125 -10.21875 1.441406 -12.203125 2.921875 -13.828125 C 4.398438 -15.453125 6.28125 -16.265625 8.5625 -16.265625 C 10.65625 -16.265625 12.378906 -15.609375 13.734375 -14.296875 L 13.734375 -15.796875 L 19.1875 -15.796875 L 19.1875 0 L 13.796875 0 L 13.796875 -1.78125 L 13.734375 -1.78125 C 12.378906 -0.28125 10.65625 0.46875 8.5625 0.46875 C 6.28125 0.46875 4.398438 -0.335938 2.921875 -1.953125 Z M 7.5625 -10.5625 C 6.851562 -9.863281 6.5 -8.96875 6.5 -7.875 C 6.5 -6.789062 6.835938 -5.90625 7.515625 -5.21875 C 8.191406 -4.53125 9.082031 -4.1875 10.1875 -4.1875 C 11.257812 -4.1875 12.140625 -4.535156 12.828125 -5.234375 C 13.515625 -5.929688 13.859375 -6.816406 13.859375 -7.890625 C 13.859375 -8.972656 13.503906 -9.863281 12.796875 -10.5625 C 12.085938 -11.257812 11.21875 -11.609375 10.1875 -11.609375 C 9.144531 -11.609375 8.269531 -11.257812 7.5625 -10.5625 Z M 7.5625 -10.5625 "/></g></g></g><g fill="#000000" fill-opacity="1"><g transform="translate(286.821522, 84.949986)"><g><path d="M 10.25 -11.796875 C 9.226562 -11.796875 8.347656 -11.414062 7.609375 -10.65625 C 6.867188 -9.894531 6.5 -8.984375 6.5 -7.921875 C 6.5 -6.828125 6.867188 -5.898438 7.609375 -5.140625 C 8.347656 -4.378906 9.226562 -4 10.25 -4 C 10.75 -4 11.21875 -4.0625 11.65625 -4.1875 C 12.09375 -4.3125 12.414062 -4.4375 12.625 -4.5625 L 12.90625 -4.75 L 14.75 -0.953125 C 14.601562 -0.847656 14.398438 -0.71875 14.140625 -0.5625 C 13.890625 -0.414062 13.304688 -0.207031 12.390625 0.0625 C 11.484375 0.332031 10.503906 0.46875 9.453125 0.46875 C 7.128906 0.46875 5.085938 -0.347656 3.328125 -1.984375 C 1.578125 -3.617188 0.703125 -5.578125 0.703125 -7.859375 C 0.703125 -10.148438 1.578125 -12.125 3.328125 -13.78125 C 5.085938 -15.4375 7.128906 -16.265625 9.453125 -16.265625 C 10.503906 -16.265625 11.46875 -16.140625 12.34375 -15.890625 C 13.226562 -15.640625 13.859375 -15.394531 14.234375 -15.15625 L 14.75 -14.78125 L 12.90625 -11.0625 C 12.226562 -11.550781 11.34375 -11.796875 10.25 -11.796875 Z M 10.25 -11.796875 "/></g></g></g><g fill="#000000" fill-opacity="1"><g transform="translate(301.937016, 84.949986)"><g><path d="M 17.828125 -7.140625 L 6.375 -7.140625 C 6.375 -6.035156 6.734375 -5.210938 7.453125 -4.671875 C 8.171875 -4.140625 8.953125 -3.875 9.796875 -3.875 C 10.679688 -3.875 11.378906 -3.992188 11.890625 -4.234375 C 12.398438 -4.472656 12.984375 -4.941406 13.640625 -5.640625 L 17.578125 -3.671875 C 15.941406 -0.910156 13.210938 0.46875 9.390625 0.46875 C 7.015625 0.46875 4.972656 -0.347656 3.265625 -1.984375 C 1.554688 -3.617188 0.703125 -5.582031 0.703125 -7.875 C 0.703125 -10.175781 1.554688 -12.148438 3.265625 -13.796875 C 4.972656 -15.441406 7.015625 -16.265625 9.390625 -16.265625 C 11.898438 -16.265625 13.9375 -15.539062 15.5 -14.09375 C 17.070312 -12.644531 17.859375 -10.578125 17.859375 -7.890625 C 17.859375 -7.515625 17.847656 -7.265625 17.828125 -7.140625 Z M 6.53125 -10.15625 L 12.53125 -10.15625 C 12.40625 -10.976562 12.082031 -11.609375 11.5625 -12.046875 C 11.039062 -12.492188 10.367188 -12.71875 9.546875 -12.71875 C 8.640625 -12.71875 7.921875 -12.476562 7.390625 -12 C 6.859375 -11.53125 6.570312 -10.914062 6.53125 -10.15625 Z M 6.53125 -10.15625 "/></g></g></g><g fill="#000000" fill-opacity="1"><g transform="translate(320.500453, 84.949986)"><g><path d="M 6.984375 -15.796875 L 6.984375 -8.28125 C 6.984375 -6.71875 7.21875 -5.609375 7.6875 -4.953125 C 8.164062 -4.296875 8.96875 -3.96875 10.09375 -3.96875 C 11.226562 -3.96875 12.03125 -4.296875 12.5 -4.953125 C 12.976562 -5.609375 13.21875 -6.71875 13.21875 -8.28125 L 13.21875 -15.796875 L 18.65625 -15.796875 L 18.65625 -6.953125 C 18.65625 -4.328125 17.972656 -2.429688 16.609375 -1.265625 C 15.242188 -0.109375 13.070312 0.46875 10.09375 0.46875 C 7.125 0.46875 4.957031 -0.109375 3.59375 -1.265625 C 2.226562 -2.429688 1.546875 -4.328125 1.546875 -6.953125 L 1.546875 -15.796875 Z M 6.984375 -15.796875 "/></g></g></g><g fill="#000000" fill-opacity="1"><g transform="translate(340.541529, 84.949986)"><g><path d="M 2.765625 -15.796875 L 2.765625 -21.6875 L 8.21875 -21.6875 L 8.21875 -15.796875 L 11.546875 -15.796875 L 11.546875 -11.640625 L 8.21875 -11.640625 L 8.21875 -6.625 C 8.21875 -5.164062 8.628906 -4.4375 9.453125 -4.4375 C 9.660156 -4.4375 9.875 -4.476562 10.09375 -4.5625 C 10.320312 -4.644531 10.5 -4.722656 10.625 -4.796875 L 10.8125 -4.921875 L 12.171875 -0.53125 C 10.992188 0.132812 9.65625 0.46875 8.15625 0.46875 C 7.132812 0.46875 6.253906 0.289062 5.515625 -0.0625 C 4.773438 -0.425781 4.210938 -0.910156 3.828125 -1.515625 C 3.453125 -2.128906 3.179688 -2.769531 3.015625 -3.4375 C 2.847656 -4.101562 2.765625 -4.816406 2.765625 -5.578125 L 2.765625 -11.640625 L 0.5 -11.640625 L 0.5 -15.796875 Z M 2.765625 -15.796875 "/></g></g></g><g fill="#000000" fill-opacity="1"><g transform="translate(352.701677, 84.949986)"><g><path d="M 2.375 -24.609375 C 3.007812 -25.242188 3.765625 -25.5625 4.640625 -25.5625 C 5.523438 -25.5625 6.285156 -25.242188 6.921875 -24.609375 C 7.566406 -23.972656 7.890625 -23.210938 7.890625 -22.328125 C 7.890625 -21.441406 7.566406 -20.679688 6.921875 -20.046875 C 6.285156 -19.410156 5.523438 -19.09375 4.640625 -19.09375 C 3.765625 -19.09375 3.007812 -19.410156 2.375 -20.046875 C 1.738281 -20.679688 1.421875 -21.441406 1.421875 -22.328125 C 1.421875 -23.210938 1.738281 -23.972656 2.375 -24.609375 Z M 1.84375 -15.796875 L 1.84375 0 L 7.296875 0 L 7.296875 -15.796875 Z M 1.84375 -15.796875 "/></g></g></g><g fill="#000000" fill-opacity="1"><g transform="translate(361.998766, 84.949986)"><g><path d="M 10.25 -11.796875 C 9.226562 -11.796875 8.347656 -11.414062 7.609375 -10.65625 C 6.867188 -9.894531 6.5 -8.984375 6.5 -7.921875 C 6.5 -6.828125 6.867188 -5.898438 7.609375 -5.140625 C 8.347656 -4.378906 9.226562 -4 10.25 -4 C 10.75 -4 11.21875 -4.0625 11.65625 -4.1875 C 12.09375 -4.3125 12.414062 -4.4375 12.625 -4.5625 L 12.90625 -4.75 L 14.75 -0.953125 C 14.601562 -0.847656 14.398438 -0.71875 14.140625 -0.5625 C 13.890625 -0.414062 13.304688 -0.207031 12.390625 0.0625 C 11.484375 0.332031 10.503906 0.46875 9.453125 0.46875 C 7.128906 0.46875 5.085938 -0.347656 3.328125 -1.984375 C 1.578125 -3.617188 0.703125 -5.578125 0.703125 -7.859375 C 0.703125 -10.148438 1.578125 -12.125 3.328125 -13.78125 C 5.085938 -15.4375 7.128906 -16.265625 9.453125 -16.265625 C 10.503906 -16.265625 11.46875 -16.140625 12.34375 -15.890625 C 13.226562 -15.640625 13.859375 -15.394531 14.234375 -15.15625 L 14.75 -14.78125 L 12.90625 -11.0625 C 12.226562 -11.550781 11.34375 -11.796875 10.25 -11.796875 Z M 10.25 -11.796875 "/></g></g></g><g fill="#000000" fill-opacity="1"><g transform="translate(376.960313, 84.949986)"><g><path d="M 2.921875 -1.953125 C 1.441406 -3.566406 0.703125 -5.539062 0.703125 -7.875 C 0.703125 -10.21875 1.441406 -12.203125 2.921875 -13.828125 C 4.398438 -15.453125 6.28125 -16.265625 8.5625 -16.265625 C 10.65625 -16.265625 12.378906 -15.609375 13.734375 -14.296875 L 13.734375 -15.796875 L 19.1875 -15.796875 L 19.1875 0 L 13.796875 0 L 13.796875 -1.78125 L 13.734375 -1.78125 C 12.378906 -0.28125 10.65625 0.46875 8.5625 0.46875 C 6.28125 0.46875 4.398438 -0.335938 2.921875 -1.953125 Z M 7.5625 -10.5625 C 6.851562 -9.863281 6.5 -8.96875 6.5 -7.875 C 6.5 -6.789062 6.835938 -5.90625 7.515625 -5.21875 C 8.191406 -4.53125 9.082031 -4.1875 10.1875 -4.1875 C 11.257812 -4.1875 12.140625 -4.535156 12.828125 -5.234375 C 13.515625 -5.929688 13.859375 -6.816406 13.859375 -7.890625 C 13.859375 -8.972656 13.503906 -9.863281 12.796875 -10.5625 C 12.085938 -11.257812 11.21875 -11.609375 10.1875 -11.609375 C 9.144531 -11.609375 8.269531 -11.257812 7.5625 -10.5625 Z M 7.5625 -10.5625 "/></g></g></g><g fill="#000000" fill-opacity="1"><g transform="translate(397.986541, 84.949986)"><g><path d="M 1.84375 0 L 1.84375 -26.484375 L 7.296875 -26.484375 L 7.296875 0 Z M 1.84375 0 "/></g></g></g><g fill="#000000" fill-opacity="1"><g transform="translate(407.12973, 84.949986)"><g><path d="M 8.71875 -16.265625 C 9.625 -16.265625 10.515625 -16.160156 11.390625 -15.953125 C 12.273438 -15.742188 12.929688 -15.539062 13.359375 -15.34375 L 14.015625 -15.03125 L 12.21875 -11.453125 C 10.988281 -12.109375 9.820312 -12.4375 8.71875 -12.4375 C 8.101562 -12.4375 7.664062 -12.367188 7.40625 -12.234375 C 7.144531 -12.109375 7.015625 -11.859375 7.015625 -11.484375 C 7.015625 -11.398438 7.023438 -11.316406 7.046875 -11.234375 C 7.066406 -11.160156 7.109375 -11.085938 7.171875 -11.015625 C 7.234375 -10.941406 7.289062 -10.878906 7.34375 -10.828125 C 7.394531 -10.773438 7.484375 -10.71875 7.609375 -10.65625 C 7.734375 -10.59375 7.828125 -10.546875 7.890625 -10.515625 C 7.960938 -10.484375 8.082031 -10.4375 8.25 -10.375 C 8.414062 -10.3125 8.539062 -10.265625 8.625 -10.234375 C 8.707031 -10.203125 8.84375 -10.15625 9.03125 -10.09375 C 9.226562 -10.039062 9.378906 -10.003906 9.484375 -9.984375 C 10.117188 -9.796875 10.671875 -9.585938 11.140625 -9.359375 C 11.617188 -9.140625 12.117188 -8.832031 12.640625 -8.4375 C 13.160156 -8.050781 13.566406 -7.554688 13.859375 -6.953125 C 14.148438 -6.359375 14.296875 -5.679688 14.296875 -4.921875 C 14.296875 -1.328125 11.800781 0.46875 6.8125 0.46875 C 5.675781 0.46875 4.597656 0.296875 3.578125 -0.046875 C 2.566406 -0.398438 1.835938 -0.753906 1.390625 -1.109375 L 0.703125 -1.65625 L 2.921875 -5.390625 C 3.085938 -5.242188 3.300781 -5.070312 3.5625 -4.875 C 3.832031 -4.6875 4.316406 -4.421875 5.015625 -4.078125 C 5.710938 -3.742188 6.320312 -3.578125 6.84375 -3.578125 C 7.96875 -3.578125 8.53125 -3.957031 8.53125 -4.71875 C 8.53125 -5.0625 8.382812 -5.332031 8.09375 -5.53125 C 7.8125 -5.726562 7.328125 -5.945312 6.640625 -6.1875 C 5.953125 -6.4375 5.410156 -6.664062 5.015625 -6.875 C 4.035156 -7.382812 3.253906 -7.960938 2.671875 -8.609375 C 2.097656 -9.253906 1.8125 -10.109375 1.8125 -11.171875 C 1.8125 -12.773438 2.429688 -14.023438 3.671875 -14.921875 C 4.921875 -15.816406 6.601562 -16.265625 8.71875 -16.265625 Z M 8.71875 -16.265625 "/></g></g></g><g fill="#000000" fill-opacity="1"><g transform="translate(154.617181, 127.699985)"><g><path d="M 1.84375 -25.40625 L 11.125 -25.40625 C 13.707031 -25.40625 15.796875 -24.738281 17.390625 -23.40625 C 18.992188 -22.070312 19.796875 -20.128906 19.796875 -17.578125 C 19.796875 -15.035156 18.984375 -13.039062 17.359375 -11.59375 C 15.742188 -10.144531 13.664062 -9.421875 11.125 -9.421875 L 7.640625 -9.421875 L 7.640625 0 L 1.84375 0 Z M 7.640625 -14.046875 L 9.265625 -14.046875 C 10.554688 -14.046875 11.617188 -14.304688 12.453125 -14.828125 C 13.285156 -15.347656 13.703125 -16.207031 13.703125 -17.40625 C 13.703125 -18.613281 13.285156 -19.476562 12.453125 -20 C 11.617188 -20.519531 10.554688 -20.78125 9.265625 -20.78125 L 7.640625 -20.78125 Z M 7.640625 -14.046875 "/></g></g></g><g fill="#000000" fill-opacity="1"><g transform="translate(174.935318, 127.699985)"><g><path d="M 5.84375 -15.796875 L 9.703125 -7.203125 L 13.546875 -15.796875 L 20.015625 -15.796875 L 11.546875 0 L 7.859375 0 L -0.609375 -15.796875 Z M 5.84375 -15.796875 "/></g></g></g><g fill="#000000" fill-opacity="1"><g transform="translate(194.329964, 127.699985)"><g><path d="M 2.765625 -15.796875 L 2.765625 -21.6875 L 8.21875 -21.6875 L 8.21875 -15.796875 L 11.546875 -15.796875 L 11.546875 -11.640625 L 8.21875 -11.640625 L 8.21875 -6.625 C 8.21875 -5.164062 8.628906 -4.4375 9.453125 -4.4375 C 9.660156 -4.4375 9.875 -4.476562 10.09375 -4.5625 C 10.320312 -4.644531 10.5 -4.722656 10.625 -4.796875 L 10.8125 -4.921875 L 12.171875 -0.53125 C 10.992188 0.132812 9.65625 0.46875 8.15625 0.46875 C 7.132812 0.46875 6.253906 0.289062 5.515625 -0.0625 C 4.773438 -0.425781 4.210938 -0.910156 3.828125 -1.515625 C 3.453125 -2.128906 3.179688 -2.769531 3.015625 -3.4375 C 2.847656 -4.101562 2.765625 -4.816406 2.765625 -5.578125 L 2.765625 -11.640625 L 0.5 -11.640625 L 0.5 -15.796875 Z M 2.765625 -15.796875 "/></g></g></g><g fill="#000000" fill-opacity="1"><g transform="translate(206.4901, 127.699985)"><g><path d="M 5.359375 -6.59375 C 6.347656 -6.59375 7.1875 -6.25 7.875 -5.5625 C 8.5625 -4.875 8.90625 -4.035156 8.90625 -3.046875 C 8.90625 -2.078125 8.5625 -1.25 7.875 -0.5625 C 7.1875 0.125 6.347656 0.46875 5.359375 0.46875 C 4.390625 0.46875 3.5625 0.125 2.875 -0.5625 C 2.1875 -1.25 1.84375 -2.078125 1.84375 -3.046875 C 1.84375 -4.035156 2.1875 -4.875 2.875 -5.5625 C 3.5625 -6.25 4.390625 -6.59375 5.359375 -6.59375 Z M 5.359375 -6.59375 "/></g></g></g><g fill="#000000" fill-opacity="1"><g transform="translate(217.234111, 127.699985)"><g/></g></g><g fill="#000000" fill-opacity="1"><g transform="translate(225.638457, 127.699985)"><g><path d="M 7.640625 -25.40625 L 7.640625 -5.078125 L 16.390625 -5.078125 L 16.390625 0 L 1.84375 0 L 1.84375 -25.40625 Z M 7.640625 -25.40625 "/></g></g></g><g fill="#000000" fill-opacity="1"><g transform="translate(243.032056, 127.699985)"><g><path d="M 2.765625 -15.796875 L 2.765625 -21.6875 L 8.21875 -21.6875 L 8.21875 -15.796875 L 11.546875 -15.796875 L 11.546875 -11.640625 L 8.21875 -11.640625 L 8.21875 -6.625 C 8.21875 -5.164062 8.628906 -4.4375 9.453125 -4.4375 C 9.660156 -4.4375 9.875 -4.476562 10.09375 -4.5625 C 10.320312 -4.644531 10.5 -4.722656 10.625 -4.796875 L 10.8125 -4.921875 L 12.171875 -0.53125 C 10.992188 0.132812 9.65625 0.46875 8.15625 0.46875 C 7.132812 0.46875 6.253906 0.289062 5.515625 -0.0625 C 4.773438 -0.425781 4.210938 -0.910156 3.828125 -1.515625 C 3.453125 -2.128906 3.179688 -2.769531 3.015625 -3.4375 C 2.847656 -4.101562 2.765625 -4.816406 2.765625 -5.578125 L 2.765625 -11.640625 L 0.5 -11.640625 L 0.5 -15.796875 Z M 2.765625 -15.796875 "/></g></g></g><g fill="#000000" fill-opacity="1"><g transform="translate(255.192193, 127.699985)"><g><path d="M 2.921875 -1.953125 C 1.441406 -3.566406 0.703125 -5.539062 0.703125 -7.875 C 0.703125 -10.21875 1.441406 -12.203125 2.921875 -13.828125 C 4.398438 -15.453125 6.28125 -16.265625 8.5625 -16.265625 C 10.65625 -16.265625 12.378906 -15.609375 13.734375 -14.296875 L 13.734375 -26.484375 L 19.1875 -26.484375 L 19.1875 0 L 13.796875 0 L 13.796875 -1.78125 L 13.734375 -1.78125 C 12.378906 -0.28125 10.65625 0.46875 8.5625 0.46875 C 6.28125 0.46875 4.398438 -0.335938 2.921875 -1.953125 Z M 7.5625 -10.5625 C 6.851562 -9.863281 6.5 -8.96875 6.5 -7.875 C 6.5 -6.789062 6.835938 -5.90625 7.515625 -5.21875 C 8.191406 -4.53125 9.082031 -4.1875 10.1875 -4.1875 C 11.257812 -4.1875 12.140625 -4.535156 12.828125 -5.234375 C 13.515625 -5.929688 13.859375 -6.816406 13.859375 -7.890625 C 13.859375 -8.972656 13.503906 -9.863281 12.796875 -10.5625 C 12.085938 -11.257812 11.21875 -11.609375 10.1875 -11.609375 C 9.144531 -11.609375 8.269531 -11.257812 7.5625 -10.5625 Z M 7.5625 -10.5625 "/></g></g></g><g fill="#000000" fill-opacity="1"><g transform="translate(276.218445, 127.699985)"><g><path d="M 5.359375 -6.59375 C 6.347656 -6.59375 7.1875 -6.25 7.875 -5.5625 C 8.5625 -4.875 8.90625 -4.035156 8.90625 -3.046875 C 8.90625 -2.078125 8.5625 -1.25 7.875 -0.5625 C 7.1875 0.125 6.347656 0.46875 5.359375 0.46875 C 4.390625 0.46875 3.5625 0.125 2.875 -0.5625 C 2.1875 -1.25 1.84375 -2.078125 1.84375 -3.046875 C 1.84375 -4.035156 2.1875 -4.875 2.875 -5.5625 C 3.5625 -6.25 4.390625 -6.59375 5.359375 -6.59375 Z M 5.359375 -6.59375 "/></g></g></g><g fill="#000000" fill-opacity="1"><g transform="translate(286.968738, 127.699985)"><g/></g></g><g fill="#000000" fill-opacity="1"><g transform="translate(149.261716, 159.199983)"><g><path d="M 6.828125 4.171875 L 4.546875 5.140625 C 4.460938 5.023438 4.335938 4.859375 4.171875 4.640625 C 4.015625 4.429688 3.738281 3.960938 3.34375 3.234375 C 2.945312 2.515625 2.597656 1.753906 2.296875 0.953125 C 1.992188 0.160156 1.71875 -0.851562 1.46875 -2.09375 C 1.21875 -3.332031 1.09375 -4.59375 1.09375 -5.875 C 1.09375 -7.195312 1.21875 -8.488281 1.46875 -9.75 C 1.726562 -11.019531 2.039062 -12.09375 2.40625 -12.96875 C 2.78125 -13.84375 3.148438 -14.617188 3.515625 -15.296875 C 3.878906 -15.984375 4.1875 -16.492188 4.4375 -16.828125 L 4.828125 -17.328125 L 7.109375 -16.359375 C 7.023438 -16.265625 6.921875 -16.125 6.796875 -15.9375 C 6.671875 -15.757812 6.445312 -15.347656 6.125 -14.703125 C 5.8125 -14.054688 5.53125 -13.363281 5.28125 -12.625 C 5.03125 -11.882812 4.804688 -10.90625 4.609375 -9.6875 C 4.410156 -8.46875 4.3125 -7.195312 4.3125 -5.875 C 4.3125 -4.625 4.394531 -3.421875 4.5625 -2.265625 C 4.738281 -1.117188 4.953125 -0.175781 5.203125 0.5625 C 5.453125 1.3125 5.695312 1.972656 5.9375 2.546875 C 6.1875 3.117188 6.398438 3.535156 6.578125 3.796875 Z M 6.828125 4.171875 "/></g></g></g><g fill="#000000" fill-opacity="1"><g transform="translate(157.238259, 159.199983)"><g><path d="M 4.90625 -16.328125 L 4.90625 0 L 1.1875 0 L 1.1875 -16.328125 Z M 4.90625 -16.328125 "/></g></g></g><g fill="#000000" fill-opacity="1"><g transform="translate(163.334481, 159.199983)"><g><path d="M 1.1875 -16.328125 L 5.921875 -16.328125 C 8.191406 -16.328125 10.128906 -15.550781 11.734375 -14 C 13.347656 -12.457031 14.15625 -10.515625 14.15625 -8.171875 C 14.15625 -5.828125 13.351562 -3.878906 11.75 -2.328125 C 10.144531 -0.773438 8.203125 0 5.921875 0 L 1.1875 0 Z M 4.90625 -3.328125 L 5.484375 -3.328125 C 6.835938 -3.328125 7.945312 -3.785156 8.8125 -4.703125 C 9.675781 -5.617188 10.117188 -6.769531 10.140625 -8.15625 C 10.140625 -9.539062 9.707031 -10.691406 8.84375 -11.609375 C 7.976562 -12.535156 6.859375 -13 5.484375 -13 L 4.90625 -13 Z M 4.90625 -3.328125 "/></g></g></g><g fill="#000000" fill-opacity="1"><g transform="translate(177.941651, 159.199983)"><g><path d="M 9.484375 -16.328125 L 16.078125 0 L 12.078125 0 L 10.875 -3.265625 L 4.65625 -3.265625 L 3.4375 0 L -0.546875 0 L 6.03125 -16.328125 Z M 9.59375 -6.53125 L 7.78125 -11.28125 L 7.734375 -11.28125 L 5.921875 -6.53125 Z M 9.59375 -6.53125 "/></g></g></g><g fill="#000000" fill-opacity="1"><g transform="translate(193.459301, 159.199983)"><g/></g></g><g fill="#000000" fill-opacity="1"><g transform="translate(198.862766, 159.199983)"><g><path d="M 14.6875 0 L 13.921875 -9.6875 L 13.8125 -9.6875 L 10.46875 -0.09375 L 8.25 -0.09375 L 4.90625 -9.6875 L 4.8125 -9.6875 L 4.03125 0 L 0.3125 0 L 1.78125 -16.328125 L 5.734375 -16.328125 L 9.359375 -6.90625 L 12.984375 -16.328125 L 16.953125 -16.328125 L 18.40625 0 Z M 14.6875 0 "/></g></g></g><g fill="#000000" fill-opacity="1"><g transform="translate(217.586867, 159.199983)"><g><path d="M 1.875 -1.25 C 0.925781 -2.289062 0.453125 -3.5625 0.453125 -5.0625 C 0.453125 -6.570312 0.925781 -7.847656 1.875 -8.890625 C 2.832031 -9.929688 4.039062 -10.453125 5.5 -10.453125 C 6.84375 -10.453125 7.953125 -10.03125 8.828125 -9.1875 L 8.828125 -10.15625 L 12.328125 -10.15625 L 12.328125 0 L 8.875 0 L 8.875 -1.140625 L 8.828125 -1.140625 C 7.953125 -0.179688 6.84375 0.296875 5.5 0.296875 C 4.039062 0.296875 2.832031 -0.21875 1.875 -1.25 Z M 4.859375 -6.796875 C 4.398438 -6.347656 4.171875 -5.769531 4.171875 -5.0625 C 4.171875 -4.363281 4.390625 -3.789062 4.828125 -3.34375 C 5.265625 -2.90625 5.835938 -2.6875 6.546875 -2.6875 C 7.234375 -2.6875 7.796875 -2.910156 8.234375 -3.359375 C 8.679688 -3.804688 8.90625 -4.375 8.90625 -5.0625 C 8.90625 -5.769531 8.675781 -6.347656 8.21875 -6.796875 C 7.769531 -7.242188 7.210938 -7.46875 6.546875 -7.46875 C 5.878906 -7.46875 5.316406 -7.242188 4.859375 -6.796875 Z M 4.859375 -6.796875 "/></g></g></g><g fill="#000000" fill-opacity="1"><g transform="translate(231.105429, 159.199983)"><g><path d="M 1.1875 0 L 1.1875 -17.03125 L 4.6875 -17.03125 L 4.6875 0 Z M 1.1875 0 "/></g></g></g><g fill="#000000" fill-opacity="1"><g transform="translate(236.983927, 159.199983)"><g><path d="M 1.1875 0 L 1.1875 -17.03125 L 4.6875 -17.03125 L 4.6875 0 Z M 1.1875 0 "/></g></g></g><g fill="#000000" fill-opacity="1"><g transform="translate(242.862424, 159.199983)"><g><path d="M 1.875 -1.25 C 0.925781 -2.289062 0.453125 -3.5625 0.453125 -5.0625 C 0.453125 -6.570312 0.925781 -7.847656 1.875 -8.890625 C 2.832031 -9.929688 4.039062 -10.453125 5.5 -10.453125 C 6.84375 -10.453125 7.953125 -10.03125 8.828125 -9.1875 L 8.828125 -10.15625 L 12.328125 -10.15625 L 12.328125 0 L 8.875 0 L 8.875 -1.140625 L 8.828125 -1.140625 C 7.953125 -0.179688 6.84375 0.296875 5.5 0.296875 C 4.039062 0.296875 2.832031 -0.21875 1.875 -1.25 Z M 4.859375 -6.796875 C 4.398438 -6.347656 4.171875 -5.769531 4.171875 -5.0625 C 4.171875 -4.363281 4.390625 -3.789062 4.828125 -3.34375 C 5.265625 -2.90625 5.835938 -2.6875 6.546875 -2.6875 C 7.234375 -2.6875 7.796875 -2.910156 8.234375 -3.359375 C 8.679688 -3.804688 8.90625 -4.375 8.90625 -5.0625 C 8.90625 -5.769531 8.675781 -6.347656 8.21875 -6.796875 C 7.769531 -7.242188 7.210938 -7.46875 6.546875 -7.46875 C 5.878906 -7.46875 5.316406 -7.242188 4.859375 -6.796875 Z M 4.859375 -6.796875 "/></g></g></g><g fill="#000000" fill-opacity="1"><g transform="translate(256.380986, 159.199983)"><g><path d="M 11.640625 -8.890625 C 12.585938 -7.859375 13.0625 -6.585938 13.0625 -5.078125 C 13.0625 -3.578125 12.585938 -2.304688 11.640625 -1.265625 C 10.691406 -0.222656 9.484375 0.296875 8.015625 0.296875 C 6.671875 0.296875 5.5625 -0.125 4.6875 -0.96875 L 4.6875 5.140625 L 1.1875 5.140625 L 1.1875 -10.15625 L 4.65625 -10.15625 L 4.65625 -9 L 4.6875 -9 C 5.5625 -9.96875 6.671875 -10.453125 8.015625 -10.453125 C 9.484375 -10.453125 10.691406 -9.929688 11.640625 -8.890625 Z M 8.65625 -3.359375 C 9.113281 -3.804688 9.34375 -4.378906 9.34375 -5.078125 C 9.34375 -5.785156 9.125 -6.359375 8.6875 -6.796875 C 8.25 -7.242188 7.675781 -7.46875 6.96875 -7.46875 C 6.28125 -7.46875 5.710938 -7.242188 5.265625 -6.796875 C 4.828125 -6.347656 4.609375 -5.78125 4.609375 -5.09375 C 4.609375 -4.382812 4.835938 -3.804688 5.296875 -3.359375 C 5.753906 -2.910156 6.3125 -2.6875 6.96875 -2.6875 C 7.644531 -2.6875 8.207031 -2.910156 8.65625 -3.359375 Z M 8.65625 -3.359375 "/></g></g></g><g fill="#000000" fill-opacity="1"><g transform="translate(269.899548, 159.199983)"><g><path d="M 4.5 -10.15625 L 4.5 -5.328125 C 4.5 -4.328125 4.648438 -3.613281 4.953125 -3.1875 C 5.253906 -2.757812 5.765625 -2.546875 6.484375 -2.546875 C 7.210938 -2.546875 7.726562 -2.757812 8.03125 -3.1875 C 8.34375 -3.613281 8.5 -4.328125 8.5 -5.328125 L 8.5 -10.15625 L 12 -10.15625 L 12 -4.46875 C 12 -2.78125 11.554688 -1.5625 10.671875 -0.8125 C 9.796875 -0.0703125 8.398438 0.296875 6.484375 0.296875 C 4.578125 0.296875 3.179688 -0.0703125 2.296875 -0.8125 C 1.421875 -1.5625 0.984375 -2.78125 0.984375 -4.46875 L 0.984375 -10.15625 Z M 4.5 -10.15625 "/></g></g></g><g fill="#000000" fill-opacity="1"><g transform="translate(282.883705, 159.199983)"><g><path d="M 1.1875 0 L 1.1875 -10.15625 L 4.6875 -10.15625 L 4.6875 -8.6875 L 4.734375 -8.6875 C 4.753906 -8.738281 4.796875 -8.800781 4.859375 -8.875 C 4.921875 -8.957031 5.050781 -9.097656 5.25 -9.296875 C 5.445312 -9.492188 5.65625 -9.671875 5.875 -9.828125 C 6.101562 -9.992188 6.394531 -10.140625 6.75 -10.265625 C 7.101562 -10.390625 7.46875 -10.453125 7.84375 -10.453125 C 8.21875 -10.453125 8.585938 -10.398438 8.953125 -10.296875 C 9.328125 -10.191406 9.601562 -10.085938 9.78125 -9.984375 L 10.0625 -9.8125 L 8.59375 -6.84375 C 8.15625 -7.21875 7.546875 -7.40625 6.765625 -7.40625 C 6.347656 -7.40625 5.984375 -7.3125 5.671875 -7.125 C 5.367188 -6.9375 5.15625 -6.710938 5.03125 -6.453125 C 4.90625 -6.191406 4.816406 -5.96875 4.765625 -5.78125 C 4.710938 -5.59375 4.6875 -5.445312 4.6875 -5.34375 L 4.6875 0 Z M 1.1875 0 "/></g></g></g><g fill="#000000" fill-opacity="1"><g transform="translate(292.740581, 159.199983)"><g><path d="M 3.421875 5.140625 L 1.140625 4.171875 C 1.210938 4.078125 1.300781 3.941406 1.40625 3.765625 C 1.519531 3.585938 1.722656 3.1875 2.015625 2.5625 C 2.304688 1.9375 2.5625 1.265625 2.78125 0.546875 C 3.007812 -0.160156 3.210938 -1.09375 3.390625 -2.25 C 3.566406 -3.414062 3.65625 -4.625 3.65625 -5.875 C 3.65625 -7.195312 3.5625 -8.460938 3.375 -9.671875 C 3.1875 -10.878906 2.953125 -11.867188 2.671875 -12.640625 C 2.390625 -13.421875 2.113281 -14.101562 1.84375 -14.6875 C 1.570312 -15.269531 1.335938 -15.691406 1.140625 -15.953125 L 0.875 -16.359375 L 3.140625 -17.328125 C 3.253906 -17.203125 3.390625 -17.023438 3.546875 -16.796875 C 3.710938 -16.578125 4.007812 -16.085938 4.4375 -15.328125 C 4.875 -14.566406 5.253906 -13.769531 5.578125 -12.9375 C 5.910156 -12.113281 6.210938 -11.0625 6.484375 -9.78125 C 6.753906 -8.5 6.890625 -7.195312 6.890625 -5.875 C 6.890625 -4.59375 6.769531 -3.335938 6.53125 -2.109375 C 6.289062 -0.890625 6 0.132812 5.65625 0.96875 C 5.3125 1.8125 4.972656 2.5625 4.640625 3.21875 C 4.304688 3.875 4.019531 4.359375 3.78125 4.671875 Z M 3.421875 5.140625 "/></g></g></g></svg>